<svg width="1360" height="139" viewBox="0 0 1360 139" fill="none" xmlns="http://www.w3.org/2000/svg">
<path d="M-118.993 67.1919C-228.648 53.2613 -331.092 87.5406 -427.809 62.8755L-403.206 110.356C-367.573 107.067 -273.571 99.0099 -182.622 93.0903C-68.9374 85.6907 129.587 93.0903 290.783 100.49C451.978 107.889 458.765 100.49 635.232 93.0903C811.698 85.6907 886.357 90.6238 1000.04 93.0903C1113.73 95.5568 1357.22 83.2242 1537.08 80.7577C1680.97 78.7845 1736.45 93.0903 1773.78 100.49L1826.38 80.7577C1723.72 88.3607 1667.73 50.5616 1521.81 69.0418C1297.83 97.4067 1337.7 57.8314 1073.85 72.1249C937.261 79.5244 815.092 79.5244 658.138 67.8085C575.431 61.6347 495.333 94.632 362.896 79.5244C138.92 53.9745 66.8061 90.7957 -118.993 67.1919Z" fill="white" fill-opacity="0.5"/>
<path d="M1906.09 86.5241C1760.22 143.044 1573.4 87.8152 1431.18 100.48C1194.13 121.587 1170.93 91.1904 1025.88 91.1904C889.694 91.1904 840.229 112.647 747.401 100.48C718.685 96.7156 681.523 87.1356 637.309 78.4243C614.284 80.7141 590.248 83.3097 564.452 86.2137C476.829 96.0778 408.946 89.8871 329.96 78.4801C226.445 98.6147 144.114 125.028 22.1841 100.48C-14.109 93.1725 -61.3893 89.729 -113.645 88.7238C-119.657 88.8443 -126.5 88.7476 -134.073 88.4537C-298.279 87.2225 -502.152 107.283 -571.25 107.283C-646.833 107.283 -632.86 86.5241 -651.646 86.5241V-0.000205994C-623.42 17.6028 -266.794 83.3031 -134.073 88.4537C-127.189 88.5053 -120.376 88.5943 -113.645 88.7238C25.5883 85.9327 139.191 49.8248 223.746 62.3673C262.528 68.12 297.199 73.7488 329.96 78.4801C355.907 73.4332 383.185 68.7809 412.751 65.4245C498.973 55.6365 575.118 66.171 637.309 78.4243C724.937 69.7101 797.938 65.4245 897.698 65.4245C1023.67 65.4245 1071.34 84.4884 1267.9 69.7775C1424.09 58.0872 1515.3 76.4305 1579.94 76.4305C1631.65 76.4305 1921.01 66.056 1906.09 86.5241Z" fill="white" fill-opacity="0.2"/>
<path d="M-510.591 75.4726C-360.502 36.3349 -328.096 95.283 -177.155 75.4726C-26.2128 55.6621 -28.7723 71.139 64.1811 75.4726C157.135 79.8061 197.215 60.6147 292.726 69.0402C333.527 72.6395 414.836 77.4874 505.566 80.9659C550.475 76.4159 593.982 72.0652 633.909 69.0402C701.475 63.9212 773.534 68.8098 846.401 76.9954C923.378 68.7502 994.14 58.7735 1096.9 69.0402C1359.55 95.2829 1630.74 60.6147 1727.95 60.6147C1805.72 60.6147 1770.88 78.7038 1790.2 78.7038V138.618C1759.51 125.733 1669.46 100.35 1554.85 101.897C1411.59 103.829 1155.06 116.021 1039.81 101.897C976.42 94.1281 911.092 84.2625 846.401 76.9954C804.926 81.4379 761.647 85.3777 710.588 85.3777C645.541 85.3777 572.955 83.5496 505.566 80.9659C407.011 90.9513 301.703 101.897 212.662 101.897C83.0482 101.897 13.0026 67.1075 -184.83 90.3001C-382.662 113.493 -379.128 101.897 -445.641 101.897C-498.851 101.897 -525.94 89.6459 -510.591 75.4726Z" fill="white" fill-opacity="0.4"/>
</svg>
