<svg width="34" height="40" viewBox="0 0 34 40" fill="none" xmlns="http://www.w3.org/2000/svg">
<path d="M7.58466 17.4995L17.6224 8.0584C17.6835 8.00082 17.7321 7.93248 17.7652 7.85726C17.7983 7.78203 17.8153 7.70141 17.8153 7.61999C17.8153 7.53858 17.7983 7.45795 17.7652 7.38273C17.7321 7.30751 17.6835 7.23916 17.6224 7.18159C17.5612 7.12402 17.4886 7.07835 17.4087 7.04719C17.3287 7.01604 17.2431 7 17.1566 7C17.0701 7 16.9844 7.01604 16.9045 7.04719C16.8246 7.07835 16.7519 7.12402 16.6908 7.18159L6.19382 17.0611C6.13233 17.1185 6.08352 17.1868 6.05021 17.262C6.0169 17.3373 5.99976 17.418 5.99976 17.4995C5.99976 17.581 6.0169 17.6617 6.05021 17.7369C6.08352 17.8122 6.13233 17.8805 6.19382 17.9379L16.6908 27.8174C16.7518 27.8752 16.8243 27.9212 16.9043 27.9525C16.9842 27.9839 17.07 28 17.1566 28C17.2432 28 17.3289 27.9839 17.4089 27.9525C17.4888 27.9212 17.5614 27.8752 17.6224 27.8174C17.6839 27.76 17.7327 27.6917 17.766 27.6164C17.7993 27.5412 17.8164 27.4605 17.8164 27.379C17.8164 27.2974 17.7993 27.2167 17.766 27.1415C17.7327 27.0662 17.6839 26.998 17.6224 26.9405L7.58466 17.4995Z" fill="white"/>
</svg>
