<svg width="34" height="40" viewBox="0 0 34 40" fill="none" xmlns="http://www.w3.org/2000/svg">
<path d="M26.4148 17.4995L16.3771 8.0584C16.316 8.00082 16.2675 7.93248 16.2343 7.85726C16.2012 7.78203 16.1842 7.70141 16.1842 7.61999C16.1842 7.53858 16.2012 7.45795 16.2343 7.38273C16.2675 7.30751 16.316 7.23916 16.3771 7.18159C16.4383 7.12402 16.5109 7.07835 16.5909 7.04719C16.6708 7.01604 16.7564 7 16.8429 7C16.9295 7 17.0151 7.01604 17.095 7.04719C17.175 7.07835 17.2476 7.12402 17.3087 7.18159L27.8057 17.0611C27.8672 17.1185 27.916 17.1868 27.9493 17.262C27.9826 17.3373 27.9998 17.418 27.9998 17.4995C27.9998 17.581 27.9826 17.6617 27.9493 17.7369C27.916 17.8122 27.8672 17.8805 27.8057 17.9379L17.3087 27.8174C17.2478 27.8752 17.1752 27.9212 17.0953 27.9525C17.0153 27.9839 16.9296 28 16.8429 28C16.7563 28 16.6706 27.9839 16.5906 27.9525C16.5107 27.9212 16.4381 27.8752 16.3771 27.8174C16.3157 27.76 16.2668 27.6917 16.2335 27.6164C16.2002 27.5412 16.1831 27.4605 16.1831 27.379C16.1831 27.2974 16.2002 27.2167 16.2335 27.1415C16.2668 27.0662 16.3157 26.998 16.3771 26.9405L26.4148 17.4995Z" fill="white"/>
</svg>
