<svg width="35" height="35" viewBox="0 0 35 35" fill="none" xmlns="http://www.w3.org/2000/svg">
<circle cx="17.5" cy="17.5" r="17.5" fill="#FFB64E"/>
<path d="M9.9043 23H4.54492V21.6123L6.32227 19.0967C6.8099 18.404 7.14486 17.8913 7.32715 17.5586C7.50944 17.2214 7.64388 16.9001 7.73047 16.5947C7.81706 16.2848 7.86035 15.9658 7.86035 15.6377C7.86035 15.2549 7.77376 14.9678 7.60059 14.7764C7.43197 14.585 7.21094 14.4893 6.9375 14.4893C6.69596 14.4893 6.47038 14.5531 6.26074 14.6807C6.05111 14.8083 5.7959 15.0384 5.49512 15.3711L4.45605 14.2773C4.93457 13.735 5.37891 13.3636 5.78906 13.1631C6.19922 12.9626 6.64355 12.8623 7.12207 12.8623C7.92871 12.8623 8.55762 13.0993 9.00879 13.5732C9.46452 14.0472 9.69238 14.7057 9.69238 15.5488C9.69238 15.9316 9.65137 16.2939 9.56934 16.6357C9.4873 16.9775 9.36198 17.3216 9.19336 17.668C9.0293 18.0098 8.82194 18.3675 8.57129 18.7412C8.32064 19.1104 7.6735 19.9603 6.62988 21.291V21.3457H9.9043V23ZM16.4941 18.0029C16.4941 19.8122 16.2754 21.1201 15.8379 21.9268C15.4049 22.7334 14.7054 23.1367 13.7393 23.1367C12.7731 23.1367 12.0781 22.7311 11.6543 21.9199C11.235 21.1087 11.0254 19.8031 11.0254 18.0029C11.0254 16.1982 11.2464 14.888 11.6885 14.0723C12.1305 13.2565 12.8232 12.8486 13.7666 12.8486C14.7282 12.8486 15.4232 13.2474 15.8516 14.0449C16.2799 14.8424 16.4941 16.1618 16.4941 18.0029ZM12.8848 18.0029C12.8848 19.402 12.944 20.3454 13.0625 20.833C13.1855 21.3161 13.4157 21.5576 13.7529 21.5576C13.9808 21.5576 14.1562 21.4528 14.2793 21.2432C14.4069 21.0335 14.498 20.6872 14.5527 20.2041C14.6074 19.7165 14.6348 18.9827 14.6348 18.0029C14.6348 16.6266 14.571 15.6878 14.4434 15.1865C14.3158 14.6852 14.0856 14.4346 13.7529 14.4346C13.4157 14.4346 13.1855 14.6852 13.0625 15.1865C12.944 15.6833 12.8848 16.6221 12.8848 18.0029ZM21.9834 23H20.1514V17.1348C20.1514 16.4967 20.1833 15.763 20.2471 14.9336C20.2152 14.9792 20.0967 15.1182 19.8916 15.3506C19.6911 15.583 19.2969 16 18.709 16.6016L17.6699 15.4668L20.3291 13.0059H21.9834V23ZM29.3457 23H23.9863V21.6123L25.7637 19.0967C26.2513 18.404 26.5863 17.8913 26.7686 17.5586C26.9508 17.2214 27.0853 16.9001 27.1719 16.5947C27.2585 16.2848 27.3018 15.9658 27.3018 15.6377C27.3018 15.2549 27.2152 14.9678 27.042 14.7764C26.8734 14.585 26.6523 14.4893 26.3789 14.4893C26.1374 14.4893 25.9118 14.5531 25.7021 14.6807C25.4925 14.8083 25.2373 15.0384 24.9365 15.3711L23.8975 14.2773C24.376 13.735 24.8203 13.3636 25.2305 13.1631C25.6406 12.9626 26.085 12.8623 26.5635 12.8623C27.3701 12.8623 27.999 13.0993 28.4502 13.5732C28.9059 14.0472 29.1338 14.7057 29.1338 15.5488C29.1338 15.9316 29.0928 16.2939 29.0107 16.6357C28.9287 16.9775 28.8034 17.3216 28.6348 17.668C28.4707 18.0098 28.2633 18.3675 28.0127 18.7412C27.762 19.1104 27.1149 19.9603 26.0713 21.291V21.3457H29.3457V23Z" fill="white"/>
</svg>
