<svg width="326" height="84" viewBox="0 0 326 84" fill="none" xmlns="http://www.w3.org/2000/svg">
<rect x="14.25" y="13.25" width="297.5" height="57.5" rx="28.75" fill="#6B6BC5" stroke="url(#paint0_linear_854_495)" stroke-width="1.5"/>
<rect x="7.5" y="7.5" width="311" height="69" rx="34.5" stroke="url(#paint1_linear_854_495)" stroke-opacity="0.8"/>
<path d="M42 0.75C19.2183 0.75 0.75 19.2183 0.75 42C0.75 64.7817 19.2183 83.25 42 83.25H284C306.782 83.25 325.25 64.7817 325.25 42C325.25 19.2183 306.782 0.75 284 0.75H42Z" stroke="url(#paint2_linear_854_495)" stroke-opacity="0.4" stroke-width="0.5"/>
<path d="M40.9692 29.6323C40.4565 29.6323 39.9976 29.7251 39.5923 29.9106C39.1919 30.0962 38.8525 30.3647 38.5742 30.7163C38.2959 31.063 38.0835 31.4854 37.937 31.9834C37.7905 32.4766 37.7173 33.0332 37.7173 33.6533C37.7173 34.4834 37.8345 35.1987 38.0688 35.7993C38.3032 36.395 38.6597 36.854 39.1382 37.1763C39.6167 37.4937 40.2222 37.6523 40.9546 37.6523C41.4087 37.6523 41.8506 37.6084 42.2803 37.5205C42.71 37.4326 43.1543 37.313 43.6133 37.1616V38.6558C43.1787 38.8267 42.7393 38.9512 42.2949 39.0293C41.8506 39.1074 41.3379 39.1465 40.7568 39.1465C39.6631 39.1465 38.7549 38.9194 38.0322 38.4653C37.3145 38.0112 36.7773 37.3716 36.4209 36.5464C36.0693 35.7212 35.8936 34.7544 35.8936 33.646C35.8936 32.8354 36.0059 32.0933 36.2305 31.4194C36.4551 30.7456 36.7822 30.1646 37.2119 29.6763C37.6416 29.1831 38.1714 28.8047 38.8013 28.541C39.436 28.2725 40.1611 28.1382 40.9766 28.1382C41.5137 28.1382 42.041 28.1992 42.5586 28.3213C43.0811 28.4385 43.5645 28.6069 44.0088 28.8267L43.3936 30.2769C43.0225 30.1011 42.6343 29.9497 42.229 29.8228C41.8237 29.6958 41.4038 29.6323 40.9692 29.6323ZM54.2624 39H52.5046V29.7861H49.4577C49.3942 30.2891 49.3259 30.8262 49.2526 31.3975C49.1794 31.9639 49.1037 32.5327 49.0256 33.104C48.9475 33.6753 48.8669 34.2173 48.7839 34.73C48.7058 35.2427 48.6252 35.6943 48.5422 36.085C48.4152 36.7393 48.2492 37.2959 48.0441 37.7549C47.8439 38.209 47.5729 38.5557 47.2312 38.7949C46.8894 39.0342 46.4426 39.1538 45.8908 39.1538C45.7053 39.1538 45.5246 39.1367 45.3488 39.1025C45.173 39.0732 45.0144 39.0342 44.8728 38.9854V37.5352C44.9899 37.5791 45.1145 37.6182 45.2463 37.6523C45.383 37.6816 45.5271 37.6963 45.6784 37.6963C45.9323 37.6963 46.135 37.6035 46.2863 37.418C46.4426 37.2275 46.572 36.959 46.6745 36.6123C46.7771 36.2607 46.8747 35.8457 46.9675 35.3672C47.0212 35.0791 47.0871 34.6982 47.1652 34.2246C47.2434 33.7461 47.3288 33.1943 47.4216 32.5693C47.5144 31.9443 47.6096 31.2705 47.7072 30.5479C47.8098 29.8203 47.9074 29.0684 48.0002 28.292H54.2624V39ZM63.4467 39H57.3822V28.292H63.4467V29.7715H59.14V32.6792H63.1757V34.1514H59.14V37.5132H63.4467V39ZM73.8248 28.292V37.4985H75.1944V41.959H73.5025V39H66.4273V41.959H64.7354V37.4985H65.5631C65.8854 36.9077 66.1905 36.2632 66.4786 35.5649C66.7667 34.8618 67.0304 34.1196 67.2696 33.3384C67.5089 32.5571 67.7115 31.7441 67.8775 30.8994C68.0484 30.0498 68.1754 29.1807 68.2584 28.292H73.8248ZM72.0743 29.7935H69.7086C69.65 30.355 69.5499 30.9702 69.4083 31.6392C69.2716 32.3032 69.1007 32.9819 68.8956 33.6753C68.6905 34.3687 68.461 35.0425 68.2071 35.6968C67.9581 36.3511 67.6944 36.9517 67.4161 37.4985H72.0743V29.7935ZM85.4334 28.292L82.0276 35.9604C81.7298 36.644 81.4173 37.2227 81.0901 37.6963C80.7679 38.1699 80.3699 38.5312 79.8963 38.7803C79.4227 39.0244 78.8099 39.1465 78.0579 39.1465C77.7845 39.1465 77.511 39.127 77.2376 39.0879C76.9642 39.0488 76.7127 38.9951 76.4832 38.9268V37.3301C76.7029 37.4229 76.9397 37.4937 77.1937 37.5425C77.4524 37.5864 77.7088 37.6084 77.9627 37.6084C78.3191 37.6084 78.6146 37.5522 78.8489 37.4399C79.0882 37.3276 79.2884 37.1616 79.4495 36.9419C79.6155 36.7173 79.7645 36.4438 79.8963 36.1216L75.9778 28.292H77.8602L80.387 33.6021C80.4261 33.6851 80.4749 33.7925 80.5335 33.9243C80.5921 34.0513 80.6482 34.1831 80.702 34.3198C80.7605 34.4517 80.8094 34.5737 80.8484 34.686H80.9144C80.9485 34.5884 80.99 34.4736 81.0389 34.3418C81.0926 34.2051 81.1463 34.0659 81.2 33.9243C81.2586 33.7827 81.3099 33.6582 81.3538 33.5508L83.595 28.292H85.4334ZM100.719 33.6313C100.719 34.4565 100.621 35.2085 100.426 35.8872C100.23 36.561 99.9351 37.1421 99.5396 37.6304C99.1489 38.1187 98.6558 38.4946 98.0601 38.7583C97.4692 39.0171 96.7759 39.1465 95.98 39.1465C94.9741 39.1465 94.1294 38.9414 93.4458 38.5312C92.7622 38.1211 92.2373 37.5425 91.8711 36.7954C91.5049 36.0483 91.2925 35.1719 91.2339 34.166H88.8975V39H87.1396V28.292H88.8975V32.6719H91.2705C91.3584 31.749 91.5879 30.9482 91.959 30.2695C92.3301 29.5859 92.8501 29.0586 93.519 28.6875C94.188 28.3115 95.0059 28.1235 95.9727 28.1235C97.0322 28.1235 97.9111 28.3506 98.6094 28.8047C99.3125 29.2588 99.8398 29.8984 100.191 30.7236C100.543 31.5488 100.719 32.5181 100.719 33.6313ZM93.0503 33.6167C93.0503 34.4468 93.1528 35.1646 93.3579 35.77C93.5679 36.3706 93.8877 36.8345 94.3174 37.1616C94.7471 37.4888 95.2939 37.6523 95.958 37.6523C96.6465 37.6523 97.2056 37.4912 97.6353 37.1689C98.0698 36.8418 98.3872 36.3779 98.5874 35.7773C98.7925 35.1719 98.895 34.4565 98.895 33.6313C98.895 32.8013 98.7949 32.0859 98.5947 31.4854C98.3945 30.8848 98.0796 30.4233 97.6499 30.1011C97.2202 29.7788 96.666 29.6177 95.9873 29.6177C95.3135 29.6177 94.7593 29.7788 94.3247 30.1011C93.8901 30.4233 93.5679 30.8848 93.3579 31.4854C93.1528 32.0811 93.0503 32.7915 93.0503 33.6167ZM117.681 37.5498V41.959H115.989V39H103.333V28.292H105.091V37.4985H108.9V28.292H110.672V37.4985H114.488V28.292H116.238V37.5498H117.681ZM119.768 28.292H121.372V33.9683C121.372 34.2124 121.37 34.481 121.365 34.7739C121.36 35.0669 121.35 35.3525 121.336 35.6309C121.326 35.9092 121.316 36.1582 121.307 36.3779C121.297 36.5928 121.287 36.749 121.277 36.8467H121.329L126.778 28.292H128.821V39H127.232V33.3677C127.232 33.104 127.237 32.8184 127.246 32.5107C127.256 32.2031 127.268 31.9053 127.283 31.6172C127.298 31.3291 127.312 31.0752 127.327 30.8555C127.342 30.6357 127.351 30.4795 127.356 30.3867H127.29L121.827 39H119.768V28.292ZM131.948 28.292H133.552V33.9683C133.552 34.2124 133.55 34.481 133.545 34.7739C133.54 35.0669 133.53 35.3525 133.516 35.6309C133.506 35.9092 133.496 36.1582 133.486 36.3779C133.477 36.5928 133.467 36.749 133.457 36.8467H133.508L138.958 28.292H141.001V39H139.412V33.3677C139.412 33.104 139.417 32.8184 139.426 32.5107C139.436 32.2031 139.448 31.9053 139.463 31.6172C139.478 31.3291 139.492 31.0752 139.507 30.8555C139.522 30.6357 139.531 30.4795 139.536 30.3867H139.47L134.006 39H131.948V28.292ZM139.837 24.8716C139.788 25.3745 139.651 25.8091 139.426 26.1753C139.207 26.5366 138.872 26.8149 138.423 27.0103C137.974 27.2056 137.383 27.3032 136.65 27.3032C135.894 27.3032 135.296 27.2104 134.856 27.0249C134.417 26.8345 134.099 26.5586 133.904 26.1973C133.709 25.8311 133.591 25.3892 133.552 24.8716H135.12C135.169 25.4136 135.31 25.7798 135.545 25.9702C135.779 26.1558 136.157 26.2485 136.68 26.2485C137.129 26.2485 137.488 26.1484 137.756 25.9482C138.03 25.748 138.193 25.3892 138.247 24.8716H139.837ZM156.521 39H154.477L150.075 33.5654V39H148.317V28.292H150.075V33.4775L154.396 28.292H156.315L151.994 33.4629L156.521 39ZM166.445 28.292L163.039 35.9604C162.741 36.644 162.428 37.2227 162.101 37.6963C161.779 38.1699 161.381 38.5312 160.907 38.7803C160.434 39.0244 159.821 39.1465 159.069 39.1465C158.796 39.1465 158.522 39.127 158.249 39.0879C157.975 39.0488 157.724 38.9951 157.494 38.9268V37.3301C157.714 37.4229 157.951 37.4937 158.205 37.5425C158.464 37.5864 158.72 37.6084 158.974 37.6084C159.33 37.6084 159.626 37.5522 159.86 37.4399C160.099 37.3276 160.3 37.1616 160.461 36.9419C160.627 36.7173 160.776 36.4438 160.907 36.1216L156.989 28.292H158.871L161.398 33.6021C161.437 33.6851 161.486 33.7925 161.545 33.9243C161.603 34.0513 161.659 34.1831 161.713 34.3198C161.772 34.4517 161.821 34.5737 161.86 34.686H161.925C161.96 34.5884 162.001 34.4736 162.05 34.3418C162.104 34.2051 162.157 34.0659 162.211 33.9243C162.27 33.7827 162.321 33.6582 162.365 33.5508L164.606 28.292H166.445ZM171.264 28.292C172.645 28.292 173.654 28.5752 174.288 29.1416C174.923 29.708 175.241 30.5015 175.241 31.522C175.241 31.9858 175.167 32.4277 175.021 32.8477C174.879 33.2627 174.645 33.6313 174.318 33.9536C173.991 34.271 173.559 34.5225 173.021 34.708C172.489 34.8936 171.832 34.9863 171.051 34.9863H169.909V39H168.151V28.292H171.264ZM171.146 29.7495H169.909V33.5215H170.868C171.42 33.5215 171.889 33.458 172.274 33.3311C172.66 33.1992 172.953 32.9917 173.153 32.7085C173.353 32.4253 173.454 32.0518 173.454 31.5879C173.454 30.9678 173.266 30.5063 172.89 30.2036C172.518 29.9009 171.937 29.7495 171.146 29.7495ZM182.242 29.6323C181.73 29.6323 181.271 29.7251 180.865 29.9106C180.465 30.0962 180.126 30.3647 179.847 30.7163C179.569 31.063 179.357 31.4854 179.21 31.9834C179.064 32.4766 178.99 33.0332 178.99 33.6533C178.99 34.4834 179.108 35.1987 179.342 35.7993C179.576 36.395 179.933 36.854 180.411 37.1763C180.89 37.4937 181.495 37.6523 182.228 37.6523C182.682 37.6523 183.124 37.6084 183.553 37.5205C183.983 37.4326 184.427 37.313 184.886 37.1616V38.6558C184.452 38.8267 184.012 38.9512 183.568 39.0293C183.124 39.1074 182.611 39.1465 182.03 39.1465C180.936 39.1465 180.028 38.9194 179.305 38.4653C178.587 38.0112 178.05 37.3716 177.694 36.5464C177.342 35.7212 177.167 34.7544 177.167 33.646C177.167 32.8354 177.279 32.0933 177.504 31.4194C177.728 30.7456 178.055 30.1646 178.485 29.6763C178.915 29.1831 179.444 28.8047 180.074 28.541C180.709 28.2725 181.434 28.1382 182.25 28.1382C182.787 28.1382 183.314 28.1992 183.832 28.3213C184.354 28.4385 184.837 28.6069 185.282 28.8267L184.667 30.2769C184.296 30.1011 183.907 29.9497 183.502 29.8228C183.097 29.6958 182.677 29.6323 182.242 29.6323ZM200.127 39H198.377V34.166H193.44V39H191.683V28.292H193.44V32.6719H198.377V28.292H200.127V39ZM209.898 39L208.85 36.0264H204.756L203.709 39H201.856L205.84 28.248H207.788L211.765 39H209.898ZM208.396 34.5176L207.378 31.5879C207.339 31.4609 207.283 31.2827 207.21 31.0532C207.136 30.8188 207.063 30.582 206.99 30.3428C206.917 30.0986 206.856 29.8936 206.807 29.7275C206.758 29.9277 206.697 30.1523 206.624 30.4014C206.555 30.6455 206.487 30.875 206.419 31.0898C206.355 31.3047 206.306 31.4707 206.272 31.5879L205.247 34.5176H208.396ZM221.323 39H219.573V34.708C218.972 34.918 218.413 35.084 217.895 35.2061C217.378 35.3232 216.829 35.3818 216.247 35.3818C215.242 35.3818 214.463 35.145 213.911 34.6714C213.359 34.1929 213.083 33.5117 213.083 32.6279V28.292H214.841V32.2178C214.841 32.7695 214.978 33.187 215.251 33.4702C215.53 33.7485 215.991 33.8877 216.636 33.8877C217.143 33.8877 217.622 33.8389 218.071 33.7412C218.52 33.6387 219.021 33.4922 219.573 33.3018V28.292H221.323V39ZM224.45 28.292H226.054V33.9683C226.054 34.2124 226.052 34.481 226.047 34.7739C226.042 35.0669 226.032 35.3525 226.018 35.6309C226.008 35.9092 225.998 36.1582 225.988 36.3779C225.979 36.5928 225.969 36.749 225.959 36.8467H226.01L231.46 28.292H233.503V39H231.914V33.3677C231.914 33.104 231.919 32.8184 231.928 32.5107C231.938 32.2031 231.95 31.9053 231.965 31.6172C231.98 31.3291 231.994 31.0752 232.009 30.8555C232.024 30.6357 232.033 30.4795 232.038 30.3867H231.972L226.508 39H224.45V28.292ZM245.068 39H243.317V34.166H238.381V39H236.623V28.292H238.381V32.6719H243.317V28.292H245.068V39ZM254.838 39L253.791 36.0264H249.696L248.649 39H246.796L250.78 28.248H252.729L256.706 39H254.838ZM253.336 34.5176L252.318 31.5879C252.279 31.4609 252.223 31.2827 252.15 31.0532C252.077 30.8188 252.003 30.582 251.93 30.3428C251.857 30.0986 251.796 29.8936 251.747 29.7275C251.698 29.9277 251.637 30.1523 251.564 30.4014C251.496 30.6455 251.427 30.875 251.359 31.0898C251.295 31.3047 251.247 31.4707 251.212 31.5879L250.187 34.5176H253.336ZM264.484 39H258.419V28.292H264.484V29.7715H260.177V32.6792H264.213V34.1514H260.177V37.5132H264.484V39ZM270.811 39H269.046V29.7861H265.912V28.292H273.939V29.7861H270.811V39ZM280.442 29.6323C279.93 29.6323 279.471 29.7251 279.066 29.9106C278.665 30.0962 278.326 30.3647 278.047 30.7163C277.769 31.063 277.557 31.4854 277.41 31.9834C277.264 32.4766 277.191 33.0332 277.191 33.6533C277.191 34.4834 277.308 35.1987 277.542 35.7993C277.776 36.395 278.133 36.854 278.611 37.1763C279.09 37.4937 279.695 37.6523 280.428 37.6523C280.882 37.6523 281.324 37.6084 281.754 37.5205C282.183 37.4326 282.628 37.313 283.087 37.1616V38.6558C282.652 38.8267 282.212 38.9512 281.768 39.0293C281.324 39.1074 280.811 39.1465 280.23 39.1465C279.136 39.1465 278.228 38.9194 277.505 38.4653C276.788 38.0112 276.251 37.3716 275.894 36.5464C275.543 35.7212 275.367 34.7544 275.367 33.646C275.367 32.8354 275.479 32.0933 275.704 31.4194C275.928 30.7456 276.255 30.1646 276.685 29.6763C277.115 29.1831 277.645 28.8047 278.275 28.541C278.909 28.2725 279.634 28.1382 280.45 28.1382C280.987 28.1382 281.514 28.1992 282.032 28.3213C282.554 28.4385 283.038 28.6069 283.482 28.8267L282.867 30.2769C282.496 30.1011 282.108 29.9497 281.702 29.8228C281.297 29.6958 280.877 29.6323 280.442 29.6323ZM289.048 34.708L286.404 39H284.412L287.437 34.2905C287.095 34.1685 286.765 33.9927 286.448 33.7632C286.136 33.5337 285.879 33.2212 285.679 32.8257C285.484 32.4253 285.386 31.9248 285.386 31.3242C285.386 30.3379 285.728 29.5859 286.411 29.0684C287.1 28.5508 288.094 28.292 289.392 28.292H292.608V39H290.85V34.708H289.048ZM290.85 29.7495H289.466C288.972 29.7495 288.555 29.8081 288.213 29.9253C287.871 30.0376 287.613 30.2183 287.437 30.4673C287.261 30.7114 287.173 31.0337 287.173 31.4341C287.173 32.0103 287.364 32.457 287.744 32.7744C288.125 33.0918 288.706 33.2505 289.488 33.2505H290.85V29.7495ZM40.7349 59H39.0063V52.1079C39.0063 51.8784 39.0088 51.6489 39.0137 51.4194C39.0186 51.1899 39.0234 50.9653 39.0283 50.7456C39.0381 50.5259 39.0503 50.3159 39.0649 50.1157C38.9624 50.228 38.8354 50.3501 38.6841 50.4819C38.5376 50.6138 38.3813 50.7505 38.2153 50.8921L36.9849 51.8735L36.1206 50.7822L39.2993 48.292H40.7349V59ZM51.8088 53.6387C51.8088 54.5029 51.7404 55.2769 51.6037 55.9604C51.4719 56.6392 51.2619 57.2153 50.9738 57.689C50.6857 58.1626 50.3098 58.5239 49.8459 58.7729C49.382 59.022 48.8205 59.1465 48.1613 59.1465C47.3361 59.1465 46.655 58.9292 46.1179 58.4946C45.5808 58.0552 45.1828 57.4253 44.924 56.605C44.6652 55.7798 44.5358 54.791 44.5358 53.6387C44.5358 52.4863 44.653 51.5 44.8874 50.6797C45.1267 49.8545 45.5124 49.2222 46.0446 48.7827C46.5769 48.3433 47.2824 48.1235 48.1613 48.1235C48.9914 48.1235 49.675 48.3433 50.2121 48.7827C50.7541 49.2173 51.1545 49.8472 51.4133 50.6724C51.677 51.4927 51.8088 52.4814 51.8088 53.6387ZM46.2717 53.6387C46.2717 54.542 46.3303 55.2964 46.4475 55.9019C46.5695 56.5073 46.7697 56.9614 47.048 57.2642C47.3264 57.562 47.6975 57.7109 48.1613 57.7109C48.6252 57.7109 48.9963 57.562 49.2746 57.2642C49.5529 56.9663 49.7531 56.5146 49.8752 55.9092C50.0021 55.3037 50.0656 54.5469 50.0656 53.6387C50.0656 52.7402 50.0046 51.9883 49.8825 51.3828C49.7604 50.7773 49.5603 50.3232 49.2819 50.0205C49.0036 49.7129 48.6301 49.5591 48.1613 49.5591C47.6926 49.5591 47.319 49.7129 47.0407 50.0205C46.7673 50.3232 46.5695 50.7773 46.4475 51.3828C46.3303 51.9883 46.2717 52.7402 46.2717 53.6387ZM62.9337 49.6323C62.421 49.6323 61.962 49.7251 61.5567 49.9106C61.1563 50.0962 60.817 50.3647 60.5387 50.7163C60.2604 51.063 60.0479 51.4854 59.9015 51.9834C59.755 52.4766 59.6817 53.0332 59.6817 53.6533C59.6817 54.4834 59.7989 55.1987 60.0333 55.7993C60.2677 56.395 60.6241 56.854 61.1026 57.1763C61.5812 57.4937 62.1866 57.6523 62.919 57.6523C63.3731 57.6523 63.815 57.6084 64.2447 57.5205C64.6744 57.4326 65.1187 57.313 65.5777 57.1616V58.6558C65.1432 58.8267 64.7037 58.9512 64.2594 59.0293C63.815 59.1074 63.3023 59.1465 62.7213 59.1465C61.6275 59.1465 60.7193 58.9194 59.9967 58.4653C59.2789 58.0112 58.7418 57.3716 58.3854 56.5464C58.0338 55.7212 57.858 54.7544 57.858 53.646C57.858 52.8354 57.9703 52.0933 58.1949 51.4194C58.4195 50.7456 58.7467 50.1646 59.1764 49.6763C59.6061 49.1831 60.1358 48.8047 60.7657 48.541C61.4005 48.2725 62.1256 48.1382 62.941 48.1382C63.4781 48.1382 64.0055 48.1992 64.523 48.3213C65.0455 48.4385 65.5289 48.6069 65.9732 48.8267L65.358 50.2769C64.9869 50.1011 64.5987 49.9497 64.1935 49.8228C63.7882 49.6958 63.3683 49.6323 62.9337 49.6323ZM74.242 59H68.1775V48.292H74.242V49.7715H69.9354V52.6792H73.971V54.1514H69.9354V57.5132H74.242V59ZM85.3013 59H83.5508V54.166H78.6143V59H76.8564V48.292H78.6143V52.6719H83.5508V48.292H85.3013V59ZM92.1491 59H90.384V49.7861H87.2492V48.292H95.2766V49.7861H92.1491V59ZM100.579 54.708L97.935 59H95.9428L98.9677 54.2905C98.6259 54.1685 98.2963 53.9927 97.9789 53.7632C97.6664 53.5337 97.4101 53.2212 97.2099 52.8257C97.0145 52.4253 96.9169 51.9248 96.9169 51.3242C96.9169 50.3379 97.2587 49.5859 97.9423 49.0684C98.6308 48.5508 99.6244 48.292 100.923 48.292H104.139V59H102.381V54.708H100.579ZM102.381 49.7495H100.996C100.503 49.7495 100.086 49.8081 99.744 49.9253C99.4022 50.0376 99.1435 50.2183 98.9677 50.4673C98.7919 50.7114 98.704 51.0337 98.704 51.4341C98.704 52.0103 98.8944 52.457 99.2753 52.7744C99.6562 53.0918 100.237 53.2505 101.018 53.2505H102.381V49.7495ZM107.258 59V48.292H113.792V49.7788H109.016V52.6206H110.298C111.314 52.6206 112.129 52.7549 112.744 53.0234C113.359 53.2871 113.804 53.6558 114.077 54.1294C114.351 54.603 114.487 55.1475 114.487 55.7627C114.487 56.7832 114.163 57.5791 113.513 58.1504C112.869 58.7168 111.821 59 110.371 59H107.258ZM109.016 57.5352H110.261C111.087 57.5352 111.699 57.396 112.1 57.1177C112.5 56.8345 112.7 56.3828 112.7 55.7627C112.7 55.3281 112.603 54.9912 112.407 54.752C112.212 54.5078 111.919 54.3369 111.528 54.2393C111.143 54.1416 110.654 54.0928 110.064 54.0928H109.016V57.5352ZM120.046 48.292C121.428 48.292 122.436 48.5752 123.071 49.1416C123.706 49.708 124.023 50.5015 124.023 51.522C124.023 51.9858 123.95 52.4277 123.804 52.8477C123.662 53.2627 123.428 53.6313 123.1 53.9536C122.773 54.271 122.341 54.5225 121.804 54.708C121.272 54.8936 120.615 54.9863 119.834 54.9863H118.691V59H116.933V48.292H120.046ZM119.929 49.7495H118.691V53.5215H119.651C120.202 53.5215 120.671 53.458 121.057 53.3311C121.443 53.1992 121.736 52.9917 121.936 52.7085C122.136 52.4253 122.236 52.0518 122.236 51.5879C122.236 50.9678 122.048 50.5063 121.672 50.2036C121.301 49.9009 120.72 49.7495 119.929 49.7495ZM129.824 54.708L127.18 59H125.188L128.212 54.2905C127.871 54.1685 127.541 53.9927 127.224 53.7632C126.911 53.5337 126.655 53.2212 126.455 52.8257C126.259 52.4253 126.162 51.9248 126.162 51.3242C126.162 50.3379 126.503 49.5859 127.187 49.0684C127.875 48.5508 128.869 48.292 130.168 48.292H133.383V59H131.625V54.708H129.824ZM131.625 49.7495H130.241C129.748 49.7495 129.331 49.8081 128.989 49.9253C128.647 50.0376 128.388 50.2183 128.212 50.4673C128.037 50.7114 127.949 51.0337 127.949 51.4341C127.949 52.0103 128.139 52.457 128.52 52.7744C128.901 53.0918 129.482 53.2505 130.263 53.2505H131.625V49.7495ZM147.218 59H139.967V57.7036L142.743 54.8911C143.28 54.3442 143.722 53.873 144.069 53.4775C144.415 53.0771 144.672 52.6987 144.838 52.3423C145.009 51.9858 145.094 51.5977 145.094 51.1777C145.094 50.6602 144.945 50.2695 144.647 50.0059C144.35 49.7373 143.956 49.603 143.468 49.603C143.004 49.603 142.575 49.6958 142.179 49.8813C141.788 50.062 141.383 50.3208 140.963 50.6577L140.018 49.5225C140.316 49.2686 140.634 49.0366 140.971 48.8267C141.312 48.6167 141.693 48.4507 142.113 48.3286C142.533 48.2017 143.012 48.1382 143.549 48.1382C144.227 48.1382 144.813 48.2603 145.307 48.5044C145.8 48.7437 146.178 49.0781 146.442 49.5078C146.71 49.9375 146.845 50.438 146.845 51.0093C146.845 51.5854 146.73 52.1177 146.5 52.606C146.271 53.0942 145.944 53.5776 145.519 54.0562C145.094 54.5298 144.589 55.0449 144.003 55.6016L142.15 57.4106V57.4912H147.218V59ZM156.102 53.6387C156.102 54.5029 156.034 55.2769 155.897 55.9604C155.765 56.6392 155.555 57.2153 155.267 57.689C154.979 58.1626 154.603 58.5239 154.139 58.7729C153.675 59.022 153.114 59.1465 152.455 59.1465C151.629 59.1465 150.948 58.9292 150.411 58.4946C149.874 58.0552 149.476 57.4253 149.217 56.605C148.959 55.7798 148.829 54.791 148.829 53.6387C148.829 52.4863 148.946 51.5 149.181 50.6797C149.42 49.8545 149.806 49.2222 150.338 48.7827C150.87 48.3433 151.576 48.1235 152.455 48.1235C153.285 48.1235 153.968 48.3433 154.505 48.7827C155.047 49.2173 155.448 49.8472 155.707 50.6724C155.97 51.4927 156.102 52.4814 156.102 53.6387ZM150.565 53.6387C150.565 54.542 150.624 55.2964 150.741 55.9019C150.863 56.5073 151.063 56.9614 151.341 57.2642C151.62 57.562 151.991 57.7109 152.455 57.7109C152.919 57.7109 153.29 57.562 153.568 57.2642C153.846 56.9663 154.046 56.5146 154.169 55.9092C154.296 55.3037 154.359 54.5469 154.359 53.6387C154.359 52.7402 154.298 51.9883 154.176 51.3828C154.054 50.7773 153.854 50.3232 153.575 50.0205C153.297 49.7129 152.923 49.5591 152.455 49.5591C151.986 49.5591 151.612 49.7129 151.334 50.0205C151.061 50.3232 150.863 50.7773 150.741 51.3828C150.624 51.9883 150.565 52.7402 150.565 53.6387ZM164.986 59H157.735V57.7036L160.511 54.8911C161.048 54.3442 161.49 53.873 161.837 53.4775C162.183 53.0771 162.44 52.6987 162.606 52.3423C162.777 51.9858 162.862 51.5977 162.862 51.1777C162.862 50.6602 162.713 50.2695 162.415 50.0059C162.117 49.7373 161.724 49.603 161.236 49.603C160.772 49.603 160.343 49.6958 159.947 49.8813C159.556 50.062 159.151 50.3208 158.731 50.6577L157.786 49.5225C158.084 49.2686 158.402 49.0366 158.739 48.8267C159.08 48.6167 159.461 48.4507 159.881 48.3286C160.301 48.2017 160.78 48.1382 161.317 48.1382C161.995 48.1382 162.581 48.2603 163.075 48.5044C163.568 48.7437 163.946 49.0781 164.21 49.5078C164.478 49.9375 164.613 50.438 164.613 51.0093C164.613 51.5854 164.498 52.1177 164.268 52.606C164.039 53.0942 163.712 53.5776 163.287 54.0562C162.862 54.5298 162.357 55.0449 161.771 55.6016L159.918 57.4106V57.4912H164.986V59ZM173.87 59H166.619V57.7036L169.395 54.8911C169.932 54.3442 170.374 53.873 170.721 53.4775C171.067 53.0771 171.324 52.6987 171.49 52.3423C171.661 51.9858 171.746 51.5977 171.746 51.1777C171.746 50.6602 171.597 50.2695 171.299 50.0059C171.001 49.7373 170.608 49.603 170.12 49.603C169.656 49.603 169.227 49.6958 168.831 49.8813C168.44 50.062 168.035 50.3208 167.615 50.6577L166.67 49.5225C166.968 49.2686 167.286 49.0366 167.623 48.8267C167.964 48.6167 168.345 48.4507 168.765 48.3286C169.185 48.2017 169.664 48.1382 170.201 48.1382C170.879 48.1382 171.465 48.2603 171.958 48.5044C172.452 48.7437 172.83 49.0781 173.094 49.5078C173.362 49.9375 173.497 50.438 173.497 51.0093C173.497 51.5854 173.382 52.1177 173.152 52.606C172.923 53.0942 172.596 53.5776 172.171 54.0562C171.746 54.5298 171.241 55.0449 170.655 55.6016L168.802 57.4106V57.4912H173.87V59ZM186.826 48.292V49.7861H182.19V59H180.432V48.292H186.826ZM198.354 53.6313C198.354 54.4565 198.249 55.2085 198.039 55.8872C197.834 56.561 197.524 57.1421 197.109 57.6304C196.694 58.1138 196.174 58.4873 195.549 58.751C194.924 59.0146 194.191 59.1465 193.352 59.1465C192.497 59.1465 191.755 59.0146 191.125 58.751C190.5 58.4873 189.98 58.1113 189.565 57.623C189.155 57.1348 188.847 56.5513 188.642 55.8726C188.437 55.1938 188.335 54.4419 188.335 53.6167C188.335 52.5132 188.515 51.5513 188.877 50.731C189.243 49.9058 189.797 49.2661 190.539 48.812C191.286 48.353 192.229 48.1235 193.366 48.1235C194.48 48.1235 195.405 48.3506 196.142 48.8047C196.879 49.2588 197.431 49.8984 197.797 50.7236C198.169 51.5439 198.354 52.5132 198.354 53.6313ZM190.18 53.6313C190.18 54.4565 190.293 55.1719 190.517 55.7773C190.742 56.3779 191.086 56.8418 191.55 57.1689C192.019 57.4912 192.619 57.6523 193.352 57.6523C194.089 57.6523 194.69 57.4912 195.153 57.1689C195.617 56.8418 195.959 56.3779 196.179 55.7773C196.399 55.1719 196.508 54.4565 196.508 53.6313C196.508 52.3765 196.257 51.395 195.754 50.687C195.256 49.9741 194.46 49.6177 193.366 49.6177C192.634 49.6177 192.031 49.7788 191.557 50.1011C191.088 50.4233 190.742 50.8848 190.517 51.4854C190.293 52.0811 190.18 52.7964 190.18 53.6313ZM208.718 48.292V57.4985H210.087V61.959H208.395V59H201.32V61.959H199.628V57.4985H200.456C200.778 56.9077 201.083 56.2632 201.371 55.5649C201.659 54.8618 201.923 54.1196 202.162 53.3384C202.402 52.5571 202.604 51.7441 202.77 50.8994C202.941 50.0498 203.068 49.1807 203.151 48.292H208.718ZM206.967 49.7935H204.601C204.543 50.355 204.443 50.9702 204.301 51.6392C204.164 52.3032 203.993 52.9819 203.788 53.6753C203.583 54.3687 203.354 55.0425 203.1 55.6968C202.851 56.3511 202.587 56.9517 202.309 57.4985H206.967V49.7935ZM218.759 59L217.711 56.0264H213.617L212.57 59H210.717L214.701 48.248H216.649L220.626 59H218.759ZM217.257 54.5176L216.239 51.5879C216.2 51.4609 216.144 51.2827 216.071 51.0532C215.998 50.8188 215.924 50.582 215.851 50.3428C215.778 50.0986 215.717 49.8936 215.668 49.7275C215.619 49.9277 215.558 50.1523 215.485 50.4014C215.417 50.6455 215.348 50.875 215.28 51.0898C215.216 51.3047 215.167 51.4707 215.133 51.5879L214.108 54.5176H217.257Z" fill="white"/>
<defs>
<linearGradient id="paint0_linear_854_495" x1="155.278" y1="-14.3544" x2="265.603" y2="110.622" gradientUnits="userSpaceOnUse">
<stop stop-color="#6B6BC5"/>
<stop offset="0.737311" stop-color="#FF77F1"/>
<stop offset="1" stop-color="#CF7C00"/>
</linearGradient>
<linearGradient id="paint1_linear_854_495" x1="154.913" y1="-26.4303" x2="289.885" y2="105.441" gradientUnits="userSpaceOnUse">
<stop stop-color="#6B6BC5"/>
<stop offset="0.737311" stop-color="#FF77F1"/>
<stop offset="1" stop-color="#CF7C00"/>
</linearGradient>
<linearGradient id="paint2_linear_854_495" x1="154.548" y1="-40.5189" x2="315.127" y2="95.4607" gradientUnits="userSpaceOnUse">
<stop stop-color="#6B6BC5"/>
<stop offset="0.737311" stop-color="#FF77F1"/>
<stop offset="1" stop-color="#CF7C00"/>
</linearGradient>
</defs>
</svg>
