<svg width="30" height="30" viewBox="0 0 30 30" fill="none" xmlns="http://www.w3.org/2000/svg">
<path d="M29.5 15C29.5 23.0081 23.0081 29.5 15 29.5C6.99187 29.5 0.5 23.0081 0.5 15C0.5 6.99187 6.99187 0.5 15 0.5C23.0081 0.5 29.5 6.99187 29.5 15Z" fill="#CF7C00" stroke="white"/>
<path d="M15.5 14.0543L10.5635 18.6739C10.3642 18.8669 10.2486 19.1308 10.2486 19.4074V22.9847C10.2486 24.0078 11.5984 24.3874 12.1318 23.5123L14.0924 20.3018L18.2385 22.4443C18.8235 22.7467 19.537 22.4186 19.6913 21.7816L22.9695 8.25745C23.1688 7.44041 22.3462 6.75186 21.5813 7.08648L5.60785 14.0543C4.82375 14.3952 4.79161 15.4954 5.55002 15.888L8.78964 17.5608" stroke="white" stroke-width="1.5"/>
</svg>
