<svg width="30" height="30" viewBox="0 0 30 30" fill="none" xmlns="http://www.w3.org/2000/svg">
<path d="M29.5 15C29.5 23.0081 23.0081 29.5 15 29.5C6.99187 29.5 0.5 23.0081 0.5 15C0.5 6.99187 6.99187 0.5 15 0.5C23.0081 0.5 29.5 6.99187 29.5 15Z" fill="#CF7C00" stroke="white"/>
<path fill-rule="evenodd" clip-rule="evenodd" d="M23.3047 19.6479H20.082L19.9993 29L13.3589 29.5V19.6479H11.3081V15.4165L13.3589 14.4155V14.3516C13.3589 13.0511 13.5719 11.8355 14.1629 10.8627L14.1657 10.8581C14.7405 9.91962 15.5663 9.24339 16.6 8.86641C17.5288 8.5227 18.5663 8.37158 19.6807 8.37158C20.4837 8.37158 21.2427 8.43879 21.9502 8.58335C22.5904 8.70653 23.1688 8.85725 23.6574 9.04845L25.0023 9.57471L23.3047 14.45V19.6479ZM21.6582 10.0547C21.0641 9.93262 20.4049 9.87158 19.6807 9.87158C18.696 9.87158 17.8415 10.0059 17.1172 10.2744C16.401 10.5348 15.8436 10.9906 15.4448 11.6416C15.0542 12.2845 14.8589 13.1878 14.8589 14.3516V15.3525L12.8081 16.3535V18.1479H14.8589V29.5L18.582 29V18.1479H21.8047V15.3525H18.582V14.498C18.582 14.2619 18.6096 14.0468 18.6648 13.8525C18.7237 13.6451 18.8141 13.4615 18.936 13.3018C19.1802 12.9844 19.5627 12.8257 20.0835 12.8257C20.5148 12.8257 20.8973 12.8623 21.231 12.9355C21.5646 13.0088 21.8739 13.0902 22.1587 13.1797L23.1108 10.4453C23.0001 10.402 22.8798 10.3601 22.7498 10.3196C22.4405 10.2232 22.0764 10.1349 21.6582 10.0547Z" fill="white"/>
</svg>
