<svg width="30" height="30" viewBox="0 0 30 30" fill="none" xmlns="http://www.w3.org/2000/svg">
<path d="M29.5 15C29.5 23.0081 23.0081 29.5 15 29.5C6.99187 29.5 0.5 23.0081 0.5 15C0.5 6.99187 6.99187 0.5 15 0.5C23.0081 0.5 29.5 6.99187 29.5 15Z" fill="#CF7C00" stroke="white"/>
<path d="M23.8167 19.8364L23.8169 19.8367C24.3665 20.8266 23.6253 22 22.53 22H20.6651C20.1246 22 19.6153 21.7162 19.3401 21.2378L23.8167 19.8364ZM23.8167 19.8364C23.4239 19.1294 22.7544 18.3987 22.1387 17.7958C21.6263 17.294 21.1073 16.8395 20.7462 16.5232C20.7459 16.523 20.7457 16.5229 20.7455 16.5227C22.0606 15.0626 23.1348 13.4038 23.5378 12.3116L23.5379 12.3113M23.8167 19.8364L23.5379 12.3113M23.5379 12.3113C23.8924 11.3494 23.1551 10.375 22.1719 10.375H20.7645C20.1061 10.375 19.5167 10.6313 19.2257 11.2277C18.2802 13.1652 17.4693 14.1196 16.8776 14.6788V14.6746V14.6685V14.6625V14.6565V14.6505V14.6444V14.6384V14.6323V14.6263V14.6202V14.6142V14.6081V14.602V14.596V14.5899V14.5838V14.5777V14.5716V14.5655V14.5595V14.5533V14.5472V14.5411V14.535V14.5289V14.5228V14.5167V14.5105V14.5044V14.4983V14.4921V14.486V14.4798V14.4737V14.4675V14.4614V14.4552V14.449V14.4429V14.4367V14.4305V14.4243V14.4181V14.412V14.4058V14.3996V14.3934V14.3872V14.381V14.3747V14.3685V14.3623V14.3561V14.3499V14.3437V14.3374V14.3312V14.325V14.3187V14.3125V14.3062V14.3V14.2938V14.2875V14.2812V14.275V14.2687V14.2625V14.2562V14.2499V14.2437V14.2374V14.2311V14.2248V14.2186V14.2123V14.206V14.1997V14.1934V14.1871V14.1808V14.1745V14.1682V14.1619V14.1556V14.1493V14.143V14.1367V14.1304V14.124V14.1177V14.1114V14.1051V14.0987V14.0924V14.0861V14.0798V14.0734V14.0671V14.0608V14.0544V14.0481V14.0417V14.0354V14.029V14.0227V14.0164V14.01V14.0037V13.9973V13.9909V13.9846V13.9782V13.9719V13.9655V13.9591V13.9528V13.9464V13.9401V13.9337V13.9273V13.9209V13.9146V13.9082V13.9018V13.8955V13.8891V13.8827V13.8763V13.8699V13.8636V13.8572V13.8508V13.8444V13.838V13.8317V13.8253V13.8189V13.8125V13.8061V13.7997V13.7933V13.7869V13.7806V13.7742V13.7678V13.7614V13.755V13.7486V13.7422V13.7358V13.7294V13.723V13.7166V13.7102V13.7038V13.6975V13.6911V13.6847V13.6783V13.6719V13.6655V13.6591V13.6527V13.6463V13.6399V13.6335V13.6271V13.6207V13.6143V13.6079V13.6015V13.5951V13.5887V13.5824V13.576V13.5696V13.5632V13.5568V13.5504V13.544V13.5376V13.5312V13.5248V13.5184V13.5121V13.5057V13.4993V13.4929V13.4865V13.4801V13.4737V13.4674V13.461V13.4546V13.4482V13.4418V13.4355V13.4291V13.4227V13.4163V13.41V13.4036V13.3972V13.3908V13.3845V13.3781V13.3717V13.3654V13.359V13.3527V13.3463V13.3399V13.3336V13.3272V13.3209V13.3145V13.3082V13.3018V13.2955V13.2891V13.2828V13.2764V13.2701V13.2637V13.2574V13.2511V13.2447V13.2384V13.2321V13.2257V13.2194V13.2131V13.2068V13.2004V13.1941V13.1878V13.1815V13.1752V13.1689V13.1625V13.1562V13.1499V13.1436V13.1373V13.131V13.1247V13.1185V13.1122V13.1059V13.0996V13.0933V13.087V13.0808V13.0745V13.0682V13.0619V13.0557V13.0494V13.0432V13.0369V13.0306V13.0244V13.0181V13.0119V13.0056V12.9994V12.9932V12.9869V12.9807V12.9745V12.9682V12.962V12.9558V12.9496V12.9434V12.9372V12.931V12.9248V12.9186V12.9124V12.9062V12.9V12.8938V12.8876V12.8814V12.8753V12.8691V12.8629V12.8568V12.8506V12.8444V12.8383V12.8321V12.826V12.8199V12.8137V12.8076V12.8015V12.7953V12.7892V12.7831V12.777V12.7709V12.7648V12.7587V12.7526V12.7465V12.7404V12.7343V12.7282V12.7221V12.7161V12.71V12.7039V12.6979V12.6918V12.6858V12.6797V12.6737V12.6676V12.6616V12.6556V12.6496V12.6435V12.6375V12.6315V12.6255V12.6195V12.6135V12.6075V12.6015V12.5956V12.5896V12.5836V12.5777V12.5717V12.5657V12.5598V12.5538V12.5479V12.542V12.536V12.5301V12.5242V12.5183V12.5124V12.5065V12.5006V12.4947V12.4888V12.4829V12.477V12.4712V12.4653V12.4594V12.4536V12.4477V12.4419V12.4361V12.4302V12.4244V12.4186V12.4128V12.407V12.4012V12.3954V12.3896V12.3838V12.378V12.3722V12.3665V12.3607V12.3549V12.3492V12.3435V12.3377V12.332V12.3263V12.3205V12.3148V12.3091V12.3034V12.2977V12.2921V12.2864V12.2807V12.275V12.2694V12.2637V12.2581V12.2524V12.2468V12.2412V12.2355V12.2299V12.2243V12.2187V12.2131V12.2075V12.202V12.1964V12.1908V12.1853V12.1797V12.1742V12.1686V12.1631V12.1576V12.1521V12.1465V12.141V12.1355V12.1301V12.1246V12.1191V12.1136V12.1082V12.1027V12.0973V12.0918V12.0864V12.081V12.0756V12.0702V12.0648V12.0594V12.054V12.0486V12.0433V12.0379V12.0325V12.0272V12.0219V12.0165V12.0112V12.0059V12.0006V11.9953V11.99V11.9847V11.9794V11.9742V11.9689V11.9637V11.9584V11.9532V11.948V11.9427V11.9375V11.9323C16.8776 11.0827 16.1858 10.4069 15.347 10.4042L12.7796 10.375L12.7796 10.375H12.771C11.8461 10.375 11.2903 11.4266 11.8479 12.1862M23.5379 12.3113L11.8479 12.1862M13.1273 13.0892L13.125 15.8335M13.1273 13.0892C13.1273 12.8256 13.041 12.5687 12.8813 12.3576L13.125 15.8335M13.1273 13.0892L12.3773 13.0886L12.3773 13.0892M13.1273 13.0892H12.3773M13.125 15.8335C13.125 16.3108 12.5464 16.5441 12.2029 16.2096M13.125 15.8335L12.2029 16.2096M12.3773 13.0892L12.3755 15.2842M12.3773 13.0892C12.3773 12.9893 12.3446 12.8913 12.2832 12.8101L12.2743 12.7984L12.2659 12.7863L11.8479 12.1862M12.3755 15.2842C11.9998 14.8206 11.6316 14.2181 11.3029 13.5815C10.8781 12.7589 10.5508 11.9417 10.382 11.4277L12.3755 15.2842ZM12.3755 15.2842L11.8586 12.2006C11.8549 12.1958 11.8514 12.191 11.8479 12.1862M12.3755 15.2842L12.375 15.8328M12.3755 15.2842L9.66939 11.6616C10.0324 12.7667 11.0408 15.0778 12.2029 16.2096M12.3755 15.2842C12.492 15.4279 12.6092 15.5583 12.7261 15.6723M12.3755 15.2842L12.2029 16.2096M12.375 15.8328C12.375 15.833 12.375 15.8333 12.375 15.8335V15.8328ZM12.375 15.8328C12.3752 15.7952 12.3883 15.7478 12.4182 15.7058C12.4457 15.6671 12.4796 15.6437 12.5106 15.6311C12.574 15.6053 12.6659 15.6136 12.7261 15.6723M12.7261 15.6723L12.5696 15.833L12.5692 15.8335L12.2029 16.2096M12.7261 15.6723C12.7261 15.6723 12.7262 15.6723 12.7262 15.6723L12.5696 15.833L12.5692 15.8335L12.2029 16.2096M8.92667 10.375L7.54047 10.3716V10.3716H7.53864C6.53456 10.3716 5.77674 11.3277 6.05832 12.3166L6.05835 12.3167C7.34147 16.8206 10.0768 21.4849 15.2036 21.9926L15.2039 21.9926C16.1129 22.0822 16.8776 21.3555 16.8776 20.4688V19.0266C16.8776 19.0169 16.8816 19.0066 16.8887 18.999C16.8896 18.998 16.8904 18.9972 16.8911 18.9967L16.9129 18.9966C17.0404 18.9966 17.2238 19.045 17.4647 19.1858C17.7019 19.3244 17.9536 19.5285 18.2036 19.7757C18.7057 20.2723 19.1289 20.871 19.34 21.2376L8.92667 10.375ZM8.92667 10.375C8.92673 10.375 8.92679 10.375 8.92684 10.375M8.92667 10.375L8.92684 10.375M8.92684 10.375C9.58588 10.3765 10.1748 10.7966 10.3819 11.4275L8.92684 10.375Z" stroke="white" stroke-width="1.5"/>
</svg>
