<svg width="30" height="30" viewBox="0 0 30 30" fill="none" xmlns="http://www.w3.org/2000/svg">
<path d="M29.5 15C29.5 23.0081 23.0081 29.5 15 29.5C6.99187 29.5 0.5 23.0081 0.5 15C0.5 6.99187 6.99187 0.5 15 0.5C23.0081 0.5 29.5 6.99187 29.5 15Z" fill="#CF7C00" stroke="white"/>
<path d="M9.04615 9H20.9538C22.6361 9 24 10.755 24 12.1778V18.8222C24 20.5772 22.6362 22 20.9538 22H9.04615C7.36387 22 6 20.245 6 18.8222V12.1778C6 10.4228 7.36376 9 9.04615 9Z" stroke="white" stroke-width="1.5" stroke-linecap="round" stroke-linejoin="round"/>
<path d="M18.5542 14.5854C18.828 14.7618 19 15.1158 19 15.5026C19 15.8893 18.828 16.2433 18.5542 16.4197L15.9939 18.0787L13.1919 19.8871C12.9384 20.0499 12.6364 20.0359 12.3935 19.8497C12.1506 19.6639 12.0014 19.3329 12 18.975V12.0301C12 11.6714 12.1486 11.3386 12.3918 11.1514C12.6349 10.9641 12.9381 10.9498 13.1921 11.1129L15.9939 12.9264L18.5542 14.5854Z" fill="white"/>
</svg>
