<svg width="25" height="24" viewBox="0 0 25 24" fill="none" xmlns="http://www.w3.org/2000/svg">
<path d="M24.5 12C24.5 18.3322 19.1469 23.5 12.5 23.5C5.85315 23.5 0.5 18.3322 0.5 12C0.5 5.66777 5.85315 0.5 12.5 0.5C19.1469 0.5 24.5 5.66777 24.5 12Z" fill="#C4C4C4" stroke="white"/>
<path d="M19.3011 16.0005C18.7395 14.9899 17.2929 13.7755 16.6957 13.2471C16.5323 13.1024 16.5148 12.8521 16.6636 12.6921C17.8032 11.4674 18.7148 10.0602 19.0286 9.20988C19.167 8.83426 18.8804 8.43738 18.4767 8.43738H17.3039C16.9173 8.43738 16.6911 8.57613 16.5832 8.79707C15.6361 10.738 14.8236 11.578 14.2548 12.0689C13.9364 12.3439 13.4398 12.1161 13.4398 11.6977C13.4398 10.8914 13.4398 9.84926 13.4398 9.1102C13.4398 8.75176 13.1467 8.46176 12.7851 8.46176L10.6426 8.43738C10.3729 8.43738 10.2189 8.7427 10.3807 8.95676L10.7345 9.46457C10.8676 9.64051 10.9395 9.85457 10.9395 10.0743L10.9376 12.3611C10.9376 12.7589 10.4554 12.9533 10.1692 12.6746C9.20074 11.7314 8.36043 9.80551 8.05793 8.88457C7.97043 8.61801 7.72074 8.43801 7.43762 8.43738L6.28231 8.43457C5.84887 8.43457 5.53199 8.84551 5.64981 9.25926C6.70543 12.9646 8.87137 16.4896 12.7314 16.8718C13.1117 16.9093 13.4398 16.603 13.4398 16.2239V15.0221C13.4398 14.6774 13.7101 14.3811 14.0576 14.3724C14.0698 14.3721 14.082 14.3721 14.0942 14.3721C15.1151 14.3721 16.2586 15.858 16.6586 16.553C16.7736 16.753 16.9886 16.8749 17.2211 16.8749H18.7751C19.2286 16.8749 19.5195 16.3939 19.3011 16.0005Z" fill="white"/>
</svg>
