<svg width="35" height="35" viewBox="0 0 35 35" fill="none" xmlns="http://www.w3.org/2000/svg">
<circle cx="17.5" cy="17.5" r="17.5" fill="#E16E60"/>
<path d="M9.9043 23H4.54492V21.6123L6.32227 19.0967C6.8099 18.404 7.14486 17.8913 7.32715 17.5586C7.50944 17.2214 7.64388 16.9001 7.73047 16.5947C7.81706 16.2848 7.86035 15.9658 7.86035 15.6377C7.86035 15.2549 7.77376 14.9678 7.60059 14.7764C7.43197 14.585 7.21094 14.4893 6.9375 14.4893C6.69596 14.4893 6.47038 14.5531 6.26074 14.6807C6.05111 14.8083 5.7959 15.0384 5.49512 15.3711L4.45605 14.2773C4.93457 13.735 5.37891 13.3636 5.78906 13.1631C6.19922 12.9626 6.64355 12.8623 7.12207 12.8623C7.92871 12.8623 8.55762 13.0993 9.00879 13.5732C9.46452 14.0472 9.69238 14.7057 9.69238 15.5488C9.69238 15.9316 9.65137 16.2939 9.56934 16.6357C9.4873 16.9775 9.36198 17.3216 9.19336 17.668C9.0293 18.0098 8.82194 18.3675 8.57129 18.7412C8.32064 19.1104 7.6735 19.9603 6.62988 21.291V21.3457H9.9043V23ZM16.4941 18.0029C16.4941 19.8122 16.2754 21.1201 15.8379 21.9268C15.4049 22.7334 14.7054 23.1367 13.7393 23.1367C12.7731 23.1367 12.0781 22.7311 11.6543 21.9199C11.235 21.1087 11.0254 19.8031 11.0254 18.0029C11.0254 16.1982 11.2464 14.888 11.6885 14.0723C12.1305 13.2565 12.8232 12.8486 13.7666 12.8486C14.7282 12.8486 15.4232 13.2474 15.8516 14.0449C16.2799 14.8424 16.4941 16.1618 16.4941 18.0029ZM12.8848 18.0029C12.8848 19.402 12.944 20.3454 13.0625 20.833C13.1855 21.3161 13.4157 21.5576 13.7529 21.5576C13.9808 21.5576 14.1562 21.4528 14.2793 21.2432C14.4069 21.0335 14.498 20.6872 14.5527 20.2041C14.6074 19.7165 14.6348 18.9827 14.6348 18.0029C14.6348 16.6266 14.571 15.6878 14.4434 15.1865C14.3158 14.6852 14.0856 14.4346 13.7529 14.4346C13.4157 14.4346 13.1855 14.6852 13.0625 15.1865C12.944 15.6833 12.8848 16.6221 12.8848 18.0029ZM21.9834 23H20.1514V17.1348C20.1514 16.4967 20.1833 15.763 20.2471 14.9336C20.2152 14.9792 20.0967 15.1182 19.8916 15.3506C19.6911 15.583 19.2969 16 18.709 16.6016L17.6699 15.4668L20.3291 13.0059H21.9834V23ZM26.7275 12.876C27.5068 12.876 28.1289 13.097 28.5938 13.5391C29.0586 13.9811 29.291 14.5827 29.291 15.3438C29.291 15.8132 29.1816 16.2393 28.9629 16.6221C28.7487 17.0003 28.3818 17.3626 27.8623 17.709C28.4456 18.1237 28.8604 18.5498 29.1064 18.9873C29.3525 19.4202 29.4756 19.8942 29.4756 20.4092C29.4756 21.2249 29.2249 21.8835 28.7236 22.3848C28.2223 22.8861 27.557 23.1367 26.7275 23.1367C25.8662 23.1367 25.1917 22.9066 24.7041 22.4463C24.2165 21.9814 23.9727 21.3206 23.9727 20.4639C23.9727 19.8896 24.0934 19.3838 24.335 18.9463C24.5811 18.5042 24.9593 18.1191 25.4697 17.791C24.9958 17.4128 24.6562 17.0322 24.4512 16.6494C24.2507 16.262 24.1504 15.8268 24.1504 15.3438C24.1504 14.5964 24.3896 13.9993 24.8682 13.5527C25.3512 13.1016 25.971 12.876 26.7275 12.876ZM25.7363 20.3682C25.7363 20.7692 25.8184 21.0882 25.9824 21.3252C26.151 21.5622 26.3903 21.6807 26.7002 21.6807C27.0374 21.6807 27.2881 21.5622 27.4521 21.3252C27.6208 21.0882 27.7051 20.7692 27.7051 20.3682C27.7051 20.0811 27.639 19.8099 27.5068 19.5547C27.3747 19.2995 27.1195 19.0055 26.7412 18.6729L26.6455 18.5771C26.3493 18.7959 26.1237 19.0465 25.9688 19.3291C25.8138 19.6071 25.7363 19.9535 25.7363 20.3682ZM26.7139 14.3184C26.4541 14.3184 26.2581 14.4141 26.126 14.6055C25.9938 14.7923 25.9277 15.0612 25.9277 15.4121C25.9277 15.7129 25.9824 15.9749 26.0918 16.1982C26.2012 16.4215 26.4131 16.6585 26.7275 16.9092C27.0283 16.6768 27.2334 16.4443 27.3428 16.2119C27.4567 15.9795 27.5137 15.7129 27.5137 15.4121C27.5137 14.6829 27.2471 14.3184 26.7139 14.3184Z" fill="white"/>
</svg>
