<svg width="35" height="35" viewBox="0 0 35 35" fill="none" xmlns="http://www.w3.org/2000/svg">
<circle cx="17.5" cy="17.5" r="17.5" fill="#CF688C"/>
<path d="M9.9043 23H4.54492V21.6123L6.32227 19.0967C6.8099 18.404 7.14486 17.8913 7.32715 17.5586C7.50944 17.2214 7.64388 16.9001 7.73047 16.5947C7.81706 16.2848 7.86035 15.9658 7.86035 15.6377C7.86035 15.2549 7.77376 14.9678 7.60059 14.7764C7.43197 14.585 7.21094 14.4893 6.9375 14.4893C6.69596 14.4893 6.47038 14.5531 6.26074 14.6807C6.05111 14.8083 5.7959 15.0384 5.49512 15.3711L4.45605 14.2773C4.93457 13.735 5.37891 13.3636 5.78906 13.1631C6.19922 12.9626 6.64355 12.8623 7.12207 12.8623C7.92871 12.8623 8.55762 13.0993 9.00879 13.5732C9.46452 14.0472 9.69238 14.7057 9.69238 15.5488C9.69238 15.9316 9.65137 16.2939 9.56934 16.6357C9.4873 16.9775 9.36198 17.3216 9.19336 17.668C9.0293 18.0098 8.82194 18.3675 8.57129 18.7412C8.32064 19.1104 7.6735 19.9603 6.62988 21.291V21.3457H9.9043V23ZM16.4941 18.0029C16.4941 19.8122 16.2754 21.1201 15.8379 21.9268C15.4049 22.7334 14.7054 23.1367 13.7393 23.1367C12.7731 23.1367 12.0781 22.7311 11.6543 21.9199C11.235 21.1087 11.0254 19.8031 11.0254 18.0029C11.0254 16.1982 11.2464 14.888 11.6885 14.0723C12.1305 13.2565 12.8232 12.8486 13.7666 12.8486C14.7282 12.8486 15.4232 13.2474 15.8516 14.0449C16.2799 14.8424 16.4941 16.1618 16.4941 18.0029ZM12.8848 18.0029C12.8848 19.402 12.944 20.3454 13.0625 20.833C13.1855 21.3161 13.4157 21.5576 13.7529 21.5576C13.9808 21.5576 14.1562 21.4528 14.2793 21.2432C14.4069 21.0335 14.498 20.6872 14.5527 20.2041C14.6074 19.7165 14.6348 18.9827 14.6348 18.0029C14.6348 16.6266 14.571 15.6878 14.4434 15.1865C14.3158 14.6852 14.0856 14.4346 13.7529 14.4346C13.4157 14.4346 13.1855 14.6852 13.0625 15.1865C12.944 15.6833 12.8848 16.6221 12.8848 18.0029ZM21.9834 23H20.1514V17.1348C20.1514 16.4967 20.1833 15.763 20.2471 14.9336C20.2152 14.9792 20.0967 15.1182 19.8916 15.3506C19.6911 15.583 19.2969 16 18.709 16.6016L17.6699 15.4668L20.3291 13.0059H21.9834V23ZM29.4141 17.3604C29.4141 21.2113 28.1266 23.1367 25.5518 23.1367C25.1234 23.1367 24.7679 23.1003 24.4854 23.0273V21.4619C24.7952 21.5622 25.0846 21.6123 25.3535 21.6123C26.1146 21.6123 26.6911 21.348 27.083 20.8193C27.4795 20.2907 27.6982 19.459 27.7393 18.3242H27.6777C27.5319 18.6842 27.3223 18.9668 27.0488 19.1719C26.7799 19.3724 26.4587 19.4727 26.085 19.4727C25.4059 19.4727 24.8796 19.1947 24.5059 18.6387C24.1322 18.0827 23.9453 17.3193 23.9453 16.3486C23.9453 15.2822 24.1891 14.4368 24.6768 13.8125C25.1689 13.1882 25.8252 12.876 26.6455 12.876C27.5387 12.876 28.2223 13.2611 28.6963 14.0312C29.1748 14.8014 29.4141 15.9111 29.4141 17.3604ZM26.6592 14.4619C26.3857 14.4619 26.167 14.61 26.0029 14.9062C25.8434 15.2025 25.7637 15.6696 25.7637 16.3076C25.7637 16.8317 25.8343 17.2419 25.9756 17.5381C26.1169 17.8298 26.3311 17.9756 26.6182 17.9756C26.8779 17.9756 27.1035 17.8275 27.2949 17.5312C27.4863 17.2305 27.582 16.8887 27.582 16.5059C27.582 15.9134 27.4977 15.4258 27.3291 15.043C27.1605 14.6556 26.9372 14.4619 26.6592 14.4619Z" fill="white"/>
</svg>
