<svg width="115" height="21" viewBox="0 0 115 21" fill="none" xmlns="http://www.w3.org/2000/svg">
<path d="M1.17383 0.46875V20H0.0751953V0.46875H1.17383ZM6.92871 10.686V20H5.83008V8.0127H6.92871V8.78174C7.92969 7.7889 9.09342 7.29248 10.4199 7.29248C11.8359 7.29248 12.9875 7.736 13.8745 8.62305C14.7616 9.51009 15.2173 10.6291 15.2417 11.98V20H14.1431V12.0776C14.1431 11.0604 13.7728 10.1937 13.0322 9.47754C12.2998 8.75326 11.429 8.39111 10.4199 8.39111C9.41081 8.39111 8.54004 8.74512 7.80762 9.45312C7.40885 9.85189 7.11589 10.2629 6.92871 10.686ZM21.375 8.0127V2.91016H22.4736V8.0127H24.915V9.11133H22.4736V20H21.375V9.11133H18.9336V8.0127H21.375ZM33.5386 20.1709C32.0412 20.1709 30.849 19.7274 29.9619 18.8403C29.0749 17.9533 28.6191 16.8343 28.5947 15.4834V8.0127H29.6934V15.3857C29.6934 16.403 30.0636 17.2697 30.8042 17.9858C31.5366 18.7101 32.444 19.0723 33.5264 19.0723C34.5355 19.0723 35.4062 18.7142 36.1387 17.998C36.8792 17.2738 37.2495 16.403 37.2495 15.3857V8.0127H38.3481V15.4834C38.3237 16.8343 37.868 17.9533 36.981 18.8403C36.0939 19.7274 34.9465 20.1709 33.5386 20.1709ZM44.1152 8.0127V20H43.0166V8.0127H44.1152ZM43.5659 3.76465C43.867 3.76465 44.1234 3.87044 44.335 4.08203C44.5547 4.29362 44.6646 4.54997 44.6646 4.85107C44.6646 5.16032 44.5547 5.42074 44.335 5.63232C44.1234 5.84391 43.867 5.94971 43.5659 5.94971C43.2648 5.94971 43.0044 5.84391 42.7847 5.63232C42.5731 5.42074 42.4673 5.16032 42.4673 4.85107C42.4673 4.54997 42.5731 4.29362 42.7847 4.08203C43.0044 3.87044 43.2648 3.76465 43.5659 3.76465ZM50.4805 8.0127V2.91016H51.5791V8.0127H54.0205V9.11133H51.5791V20H50.4805V9.11133H48.0391V8.0127H50.4805ZM75.6377 0.46875V1.56738H68.1914V9.68506H75.6377V10.7837H68.1914V20H67.0928V0.46875H75.6377ZM80.8555 0.46875V20H79.7568V0.46875H80.8555ZM91.2368 6.92627C93.0923 6.92627 94.6711 7.58138 95.9731 8.8916C97.2834 10.2018 97.9385 11.7847 97.9385 13.6401C97.9385 15.4875 97.2834 17.0662 95.9731 18.3765C94.6711 19.6867 93.0923 20.3418 91.2368 20.3418C89.3895 20.3418 87.8107 19.6867 86.5005 18.3765C85.1903 17.0662 84.5352 15.4875 84.5352 13.6401C84.5352 11.7847 85.1903 10.2018 86.5005 8.8916C87.8107 7.58138 89.3895 6.92627 91.2368 6.92627ZM91.2368 8.09814C89.7069 8.09814 88.4007 8.63932 87.3184 9.72168C86.236 10.804 85.6948 12.1102 85.6948 13.6401C85.6948 15.1701 86.236 16.4762 87.3184 17.5586C88.4007 18.6328 89.7069 19.1699 91.2368 19.1699C92.7668 19.1699 94.0729 18.6328 95.1553 17.5586C96.2376 16.4762 96.7788 15.1701 96.7788 13.6401C96.7788 12.1102 96.2376 10.804 95.1553 9.72168C94.0729 8.63932 92.7668 8.09814 91.2368 8.09814ZM107.38 16.8262V8.0127H108.479V16.5576C108.479 17.2738 108.719 17.8719 109.199 18.3521C109.687 18.8322 110.269 19.0723 110.944 19.0723C111.62 19.0723 112.202 18.8322 112.69 18.3521C113.138 17.9045 113.378 17.3633 113.41 16.7285H113.398V8.0127H114.497V16.7285C114.464 17.6644 114.118 18.4619 113.459 19.1211C112.767 19.821 111.929 20.1709 110.944 20.1709C109.96 20.1709 109.121 19.821 108.43 19.1211C108.243 18.9339 108.08 18.7386 107.941 18.5352C107.803 18.7386 107.636 18.9339 107.441 19.1211C106.749 19.821 105.911 20.1709 104.926 20.1709C103.942 20.1709 103.103 19.821 102.412 19.1211C101.752 18.4619 101.407 17.6644 101.374 16.7285V8.0127H102.473V16.7285H102.46C102.493 17.3633 102.737 17.9045 103.193 18.3521C103.673 18.8322 104.251 19.0723 104.926 19.0723C105.602 19.0723 106.184 18.8322 106.672 18.3521C107.087 17.937 107.323 17.4284 107.38 16.8262Z" fill="#6B6BC5" style="mix-blend-mode:overlay"/>
<path d="M1.17383 0.46875H1.67383V-0.03125H1.17383V0.46875ZM1.17383 20V20.5H1.67383V20H1.17383ZM0.0751953 20H-0.424805V20.5H0.0751953V20ZM0.0751953 0.46875V-0.03125H-0.424805V0.46875H0.0751953ZM0.673828 0.46875V20H1.67383V0.46875H0.673828ZM1.17383 19.5H0.0751953V20.5H1.17383V19.5ZM0.575195 20V0.46875H-0.424805V20H0.575195ZM0.0751953 0.96875H1.17383V-0.03125H0.0751953V0.96875ZM6.92871 10.686L6.47144 10.4838L6.42871 10.5804V10.686H6.92871ZM6.92871 20V20.5H7.42871V20H6.92871ZM5.83008 20H5.33008V20.5H5.83008V20ZM5.83008 8.0127V7.5127H5.33008V8.0127H5.83008ZM6.92871 8.0127H7.42871V7.5127H6.92871V8.0127ZM6.92871 8.78174H6.42871V9.98191L7.28082 9.13673L6.92871 8.78174ZM15.2417 11.98H15.7418L15.7416 11.9709L15.2417 11.98ZM15.2417 20V20.5H15.7417V20H15.2417ZM14.1431 20H13.6431V20.5H14.1431V20ZM13.0322 9.47754L12.6806 9.83308L12.6846 9.83697L13.0322 9.47754ZM7.80762 9.45312L7.46006 9.09358L7.45406 9.09957L7.80762 9.45312ZM6.42871 10.686V20H7.42871V10.686H6.42871ZM6.92871 19.5H5.83008V20.5H6.92871V19.5ZM6.33008 20V8.0127H5.33008V20H6.33008ZM5.83008 8.5127H6.92871V7.5127H5.83008V8.5127ZM6.42871 8.0127V8.78174H7.42871V8.0127H6.42871ZM7.28082 9.13673C8.19467 8.23031 9.23423 7.79248 10.4199 7.79248V6.79248C8.95262 6.79248 7.66471 7.34749 6.5766 8.42674L7.28082 9.13673ZM10.4199 7.79248C11.722 7.79248 12.7401 8.19572 13.521 8.9766L14.2281 8.26949C13.2349 7.27629 11.9499 6.79248 10.4199 6.79248V7.79248ZM13.521 8.9766C14.309 9.76462 14.7195 10.7566 14.7418 11.989L15.7416 11.9709C15.7151 10.5015 15.2141 9.25556 14.2281 8.26949L13.521 8.9766ZM14.7417 11.98V20H15.7417V11.98H14.7417ZM15.2417 19.5H14.1431V20.5H15.2417V19.5ZM14.6431 20V12.0776H13.6431V20H14.6431ZM14.6431 12.0776C14.6431 10.9229 14.2164 9.92711 13.3798 9.11811L12.6846 9.83697C13.3292 10.4603 13.6431 11.1978 13.6431 12.0776H14.6431ZM13.3838 9.12202C12.5599 8.30732 11.5637 7.89111 10.4199 7.89111V8.89111C11.2944 8.89111 12.0397 9.19919 12.6807 9.83306L13.3838 9.12202ZM10.4199 7.89111C9.27976 7.89111 8.28477 8.29645 7.46011 9.09363L8.15513 9.81262C8.7953 9.19378 9.54185 8.89111 10.4199 8.89111V7.89111ZM7.45406 9.09957C7.02095 9.53269 6.68836 9.99336 6.47144 10.4838L7.38598 10.8883C7.54341 10.5324 7.79676 10.1711 8.16117 9.80668L7.45406 9.09957ZM21.375 8.0127V8.5127H21.875V8.0127H21.375ZM21.375 2.91016V2.41016H20.875V2.91016H21.375ZM22.4736 2.91016H22.9736V2.41016H22.4736V2.91016ZM22.4736 8.0127H21.9736V8.5127H22.4736V8.0127ZM24.915 8.0127H25.415V7.5127H24.915V8.0127ZM24.915 9.11133V9.61133H25.415V9.11133H24.915ZM22.4736 9.11133V8.61133H21.9736V9.11133H22.4736ZM22.4736 20V20.5H22.9736V20H22.4736ZM21.375 20H20.875V20.5H21.375V20ZM21.375 9.11133H21.875V8.61133H21.375V9.11133ZM18.9336 9.11133H18.4336V9.61133H18.9336V9.11133ZM18.9336 8.0127V7.5127H18.4336V8.0127H18.9336ZM21.875 8.0127V2.91016H20.875V8.0127H21.875ZM21.375 3.41016H22.4736V2.41016H21.375V3.41016ZM21.9736 2.91016V8.0127H22.9736V2.91016H21.9736ZM22.4736 8.5127H24.915V7.5127H22.4736V8.5127ZM24.415 8.0127V9.11133H25.415V8.0127H24.415ZM24.915 8.61133H22.4736V9.61133H24.915V8.61133ZM21.9736 9.11133V20H22.9736V9.11133H21.9736ZM22.4736 19.5H21.375V20.5H22.4736V19.5ZM21.875 20V9.11133H20.875V20H21.875ZM21.375 8.61133H18.9336V9.61133H21.375V8.61133ZM19.4336 9.11133V8.0127H18.4336V9.11133H19.4336ZM18.9336 8.5127H21.375V7.5127H18.9336V8.5127ZM29.9619 18.8403L29.6084 19.1939L29.9619 18.8403ZM28.5947 15.4834H28.0946L28.0948 15.4924L28.5947 15.4834ZM28.5947 8.0127V7.5127H28.0947V8.0127H28.5947ZM29.6934 8.0127H30.1934V7.5127H29.6934V8.0127ZM30.8042 17.9858L31.1558 17.6303L31.1518 17.6264L30.8042 17.9858ZM36.1387 17.998L36.4882 18.3556L36.4883 18.3555L36.1387 17.998ZM37.2495 8.0127V7.5127H36.7495V8.0127H37.2495ZM38.3481 8.0127H38.8481V7.5127H38.3481V8.0127ZM38.3481 15.4834L38.8481 15.4924V15.4834H38.3481ZM33.5386 19.6709C32.1463 19.6709 31.0909 19.2622 30.3155 18.4868L29.6084 19.1939C30.607 20.1925 31.9361 20.6709 33.5386 20.6709V19.6709ZM30.3155 18.4868C29.5275 17.6988 29.1169 16.7068 29.0946 15.4744L28.0948 15.4924C28.1214 16.9618 28.6223 18.2078 29.6084 19.1939L30.3155 18.4868ZM29.0947 15.4834V8.0127H28.0947V15.4834H29.0947ZM28.5947 8.5127H29.6934V7.5127H28.5947V8.5127ZM29.1934 8.0127V15.3857H30.1934V8.0127H29.1934ZM29.1934 15.3857C29.1934 16.5404 29.62 17.5363 30.4566 18.3453L31.1518 17.6264C30.5072 17.0031 30.1934 16.2655 30.1934 15.3857H29.1934ZM30.4526 18.3414C31.2838 19.1633 32.3198 19.5723 33.5264 19.5723V18.5723C32.5682 18.5723 31.7894 18.2569 31.1558 17.6303L30.4526 18.3414ZM33.5264 19.5723C34.6683 19.5723 35.664 19.1615 36.4882 18.3556L35.7891 17.6405C35.1485 18.2669 34.4026 18.5723 33.5264 18.5723V19.5723ZM36.4883 18.3555C37.323 17.5391 37.7495 16.5403 37.7495 15.3857H36.7495C36.7495 16.2657 36.4354 17.0084 35.7891 17.6406L36.4883 18.3555ZM37.7495 15.3857V8.0127H36.7495V15.3857H37.7495ZM37.2495 8.5127H38.3481V7.5127H37.2495V8.5127ZM37.8481 8.0127V15.4834H38.8481V8.0127H37.8481ZM37.8482 15.4744C37.826 16.7068 37.4154 17.6988 36.6274 18.4868L37.3345 19.1939C38.3206 18.2078 38.8215 16.9618 38.8481 15.4924L37.8482 15.4744ZM36.6274 18.4868C35.846 19.2682 34.8316 19.6709 33.5386 19.6709V20.6709C35.0613 20.6709 36.3419 20.1865 37.3345 19.1939L36.6274 18.4868ZM44.1152 8.0127H44.6152V7.5127H44.1152V8.0127ZM44.1152 20V20.5H44.6152V20H44.1152ZM43.0166 20H42.5166V20.5H43.0166V20ZM43.0166 8.0127V7.5127H42.5166V8.0127H43.0166ZM44.335 4.08203L43.9813 4.43565L43.9881 4.44219L44.335 4.08203ZM44.335 5.63232L43.9881 5.2721L43.9814 5.27877L44.335 5.63232ZM42.7847 5.63232L42.4311 5.98594L42.4378 5.99248L42.7847 5.63232ZM42.7847 4.08203L42.4378 3.72181L42.4311 3.72848L42.7847 4.08203ZM43.6152 8.0127V20H44.6152V8.0127H43.6152ZM44.1152 19.5H43.0166V20.5H44.1152V19.5ZM43.5166 20V8.0127H42.5166V20H43.5166ZM43.0166 8.5127H44.1152V7.5127H43.0166V8.5127ZM43.5659 4.26465C43.7354 4.26465 43.8642 4.31842 43.9814 4.43559L44.6885 3.72848C44.3825 3.42246 43.9987 3.26465 43.5659 3.26465V4.26465ZM43.9881 4.44219C44.1114 4.56092 44.1646 4.68784 44.1646 4.85107H45.1646C45.1646 4.41209 44.9979 4.02632 44.6818 3.72187L43.9881 4.44219ZM44.1646 4.85107C44.1646 5.02656 44.1085 5.15629 43.9881 5.27216L44.6818 5.99248C45.0009 5.68519 45.1646 5.29408 45.1646 4.85107H44.1646ZM43.9814 5.27877C43.8642 5.39593 43.7354 5.44971 43.5659 5.44971V6.44971C43.9987 6.44971 44.3825 6.29189 44.6885 5.98588L43.9814 5.27877ZM43.5659 5.44971C43.396 5.44971 43.2594 5.39534 43.1315 5.27216L42.4378 5.99248C42.7494 6.29248 43.1336 6.44971 43.5659 6.44971V5.44971ZM43.1382 5.27877C43.0238 5.1644 42.9673 5.03267 42.9673 4.85107H41.9673C41.9673 5.28797 42.1223 5.67707 42.4311 5.98588L43.1382 5.27877ZM42.9673 4.85107C42.9673 4.68164 43.0211 4.55275 43.1382 4.43559L42.4311 3.72848C42.1251 4.03449 41.9673 4.41829 41.9673 4.85107H42.9673ZM43.1315 4.44219C43.2594 4.31901 43.396 4.26465 43.5659 4.26465V3.26465C43.1336 3.26465 42.7494 3.42187 42.4378 3.72187L43.1315 4.44219ZM50.4805 8.0127V8.5127H50.9805V8.0127H50.4805ZM50.4805 2.91016V2.41016H49.9805V2.91016H50.4805ZM51.5791 2.91016H52.0791V2.41016H51.5791V2.91016ZM51.5791 8.0127H51.0791V8.5127H51.5791V8.0127ZM54.0205 8.0127H54.5205V7.5127H54.0205V8.0127ZM54.0205 9.11133V9.61133H54.5205V9.11133H54.0205ZM51.5791 9.11133V8.61133H51.0791V9.11133H51.5791ZM51.5791 20V20.5H52.0791V20H51.5791ZM50.4805 20H49.9805V20.5H50.4805V20ZM50.4805 9.11133H50.9805V8.61133H50.4805V9.11133ZM48.0391 9.11133H47.5391V9.61133H48.0391V9.11133ZM48.0391 8.0127V7.5127H47.5391V8.0127H48.0391ZM50.9805 8.0127V2.91016H49.9805V8.0127H50.9805ZM50.4805 3.41016H51.5791V2.41016H50.4805V3.41016ZM51.0791 2.91016V8.0127H52.0791V2.91016H51.0791ZM51.5791 8.5127H54.0205V7.5127H51.5791V8.5127ZM53.5205 8.0127V9.11133H54.5205V8.0127H53.5205ZM54.0205 8.61133H51.5791V9.61133H54.0205V8.61133ZM51.0791 9.11133V20H52.0791V9.11133H51.0791ZM51.5791 19.5H50.4805V20.5H51.5791V19.5ZM50.9805 20V9.11133H49.9805V20H50.9805ZM50.4805 8.61133H48.0391V9.61133H50.4805V8.61133ZM48.5391 9.11133V8.0127H47.5391V9.11133H48.5391ZM48.0391 8.5127H50.4805V7.5127H48.0391V8.5127ZM75.6377 0.46875H76.1377V-0.03125H75.6377V0.46875ZM75.6377 1.56738V2.06738H76.1377V1.56738H75.6377ZM68.1914 1.56738V1.06738H67.6914V1.56738H68.1914ZM68.1914 9.68506H67.6914V10.1851H68.1914V9.68506ZM75.6377 9.68506H76.1377V9.18506H75.6377V9.68506ZM75.6377 10.7837V11.2837H76.1377V10.7837H75.6377ZM68.1914 10.7837V10.2837H67.6914V10.7837H68.1914ZM68.1914 20V20.5H68.6914V20H68.1914ZM67.0928 20H66.5928V20.5H67.0928V20ZM67.0928 0.46875V-0.03125H66.5928V0.46875H67.0928ZM75.1377 0.46875V1.56738H76.1377V0.46875H75.1377ZM75.6377 1.06738H68.1914V2.06738H75.6377V1.06738ZM67.6914 1.56738V9.68506H68.6914V1.56738H67.6914ZM68.1914 10.1851H75.6377V9.18506H68.1914V10.1851ZM75.1377 9.68506V10.7837H76.1377V9.68506H75.1377ZM75.6377 10.2837H68.1914V11.2837H75.6377V10.2837ZM67.6914 10.7837V20H68.6914V10.7837H67.6914ZM68.1914 19.5H67.0928V20.5H68.1914V19.5ZM67.5928 20V0.46875H66.5928V20H67.5928ZM67.0928 0.96875H75.6377V-0.03125H67.0928V0.96875ZM80.8555 0.46875H81.3555V-0.03125H80.8555V0.46875ZM80.8555 20V20.5H81.3555V20H80.8555ZM79.7568 20H79.2568V20.5H79.7568V20ZM79.7568 0.46875V-0.03125H79.2568V0.46875H79.7568ZM80.3555 0.46875V20H81.3555V0.46875H80.3555ZM80.8555 19.5H79.7568V20.5H80.8555V19.5ZM80.2568 20V0.46875H79.2568V20H80.2568ZM79.7568 0.96875H80.8555V-0.03125H79.7568V0.96875ZM95.9731 8.8916L95.6185 9.24405L95.6196 9.24516L95.9731 8.8916ZM95.9731 18.3765L95.6196 18.0229L95.6185 18.024L95.9731 18.3765ZM87.3184 9.72168L86.9648 9.36813L87.3184 9.72168ZM87.3184 17.5586L86.9648 17.9121L86.9661 17.9135L87.3184 17.5586ZM95.1553 17.5586L95.5075 17.9135L95.5088 17.9121L95.1553 17.5586ZM95.1553 9.72168L94.8017 10.0752L95.1553 9.72168ZM91.2368 7.42627C92.9598 7.42627 94.4107 8.02875 95.6185 9.24405L96.3278 8.53915C94.9314 7.13401 93.2248 6.42627 91.2368 6.42627V7.42627ZM95.6196 9.24516C96.8359 10.4615 97.4385 11.9171 97.4385 13.6401H98.4385C98.4385 11.6523 97.7308 9.94218 96.3267 8.53805L95.6196 9.24516ZM97.4385 13.6401C97.4385 15.3544 96.8364 16.8061 95.6196 18.0229L96.3267 18.73C97.7304 17.3263 98.4385 15.6205 98.4385 13.6401H97.4385ZM95.6185 18.024C94.4107 19.2393 92.9598 19.8418 91.2368 19.8418V20.8418C93.2248 20.8418 94.9314 20.1341 96.3278 18.7289L95.6185 18.024ZM91.2368 19.8418C89.5225 19.8418 88.0708 19.2397 86.854 18.0229L86.1469 18.73C87.5506 20.1337 89.2564 20.8418 91.2368 20.8418V19.8418ZM86.854 18.0229C85.6373 16.8061 85.0352 15.3544 85.0352 13.6401H84.0352C84.0352 15.6205 84.7433 17.3263 86.1469 18.73L86.854 18.0229ZM85.0352 13.6401C85.0352 11.9171 85.6377 10.4615 86.854 9.24516L86.1469 8.53805C84.7428 9.94218 84.0352 11.6523 84.0352 13.6401H85.0352ZM86.854 9.24516C88.0708 8.02838 89.5225 7.42627 91.2368 7.42627V6.42627C89.2564 6.42627 87.5506 7.13438 86.1469 8.53805L86.854 9.24516ZM91.2368 7.59814C89.5742 7.59814 88.1409 8.19205 86.9648 9.36813L87.6719 10.0752C88.6606 9.08659 89.8395 8.59814 91.2368 8.59814V7.59814ZM86.9648 9.36813C85.7887 10.5442 85.1948 11.9775 85.1948 13.6401H86.1948C86.1948 12.2429 86.6833 11.0639 87.6719 10.0752L86.9648 9.36813ZM85.1948 13.6401C85.1948 15.3028 85.7887 16.7361 86.9648 17.9121L87.6719 17.205C86.6833 16.2164 86.1948 15.0374 86.1948 13.6401H85.1948ZM86.9661 17.9135C88.1425 19.081 89.5754 19.6699 91.2368 19.6699V18.6699C89.8383 18.6699 88.6589 18.1846 87.6706 17.2037L86.9661 17.9135ZM91.2368 19.6699C92.8982 19.6699 94.3311 19.081 95.5075 17.9135L94.8031 17.2037C93.8147 18.1846 92.6353 18.6699 91.2368 18.6699V19.6699ZM95.5088 17.9121C96.6849 16.7361 97.2788 15.3028 97.2788 13.6401H96.2788C96.2788 15.0374 95.7904 16.2164 94.8017 17.205L95.5088 17.9121ZM97.2788 13.6401C97.2788 11.9775 96.6849 10.5442 95.5088 9.36813L94.8017 10.0752C95.7904 11.0639 96.2788 12.2429 96.2788 13.6401H97.2788ZM95.5088 9.36813C94.3328 8.19205 92.8994 7.59814 91.2368 7.59814V8.59814C92.6341 8.59814 93.8131 9.08659 94.8017 10.0752L95.5088 9.36813ZM107.38 16.8262L107.878 16.8733L107.88 16.8498V16.8262H107.38ZM107.38 8.0127V7.5127H106.88V8.0127H107.38ZM108.479 8.0127H108.979V7.5127H108.479V8.0127ZM109.199 18.3521L108.845 18.7056L108.848 18.7086L109.199 18.3521ZM112.69 18.3521L113.041 18.7086L113.043 18.7056L112.69 18.3521ZM113.41 16.7285L113.91 16.7541L113.936 16.2285H113.41V16.7285ZM113.398 16.7285H112.898V17.2285H113.398V16.7285ZM113.398 8.0127V7.5127H112.898V8.0127H113.398ZM114.497 8.0127H114.997V7.5127H114.497V8.0127ZM114.497 16.7285L114.996 16.7459L114.997 16.7372V16.7285H114.497ZM113.459 19.1211L113.105 18.7675L113.103 18.7696L113.459 19.1211ZM108.43 19.1211L108.785 18.7696L108.783 18.7675L108.43 19.1211ZM107.941 18.5352L108.355 18.254L107.941 17.646L107.528 18.254L107.941 18.5352ZM107.441 19.1211L107.095 18.76L107.085 18.7696L107.441 19.1211ZM102.412 19.1211L102.767 18.7696L102.765 18.7675L102.412 19.1211ZM101.374 16.7285H100.874V16.7372L100.874 16.7459L101.374 16.7285ZM101.374 8.0127V7.5127H100.874V8.0127H101.374ZM102.473 8.0127H102.973V7.5127H102.473V8.0127ZM102.473 16.7285V17.2285H102.973V16.7285H102.473ZM102.46 16.7285V16.2285H101.934L101.961 16.7541L102.46 16.7285ZM103.193 18.3521L103.546 17.9985L103.543 17.9953L103.193 18.3521ZM106.672 18.3521L107.022 18.7086L107.025 18.7056L106.672 18.3521ZM107.88 16.8262V8.0127H106.88V16.8262H107.88ZM107.38 8.5127H108.479V7.5127H107.38V8.5127ZM107.979 8.0127V16.5576H108.979V8.0127H107.979ZM107.979 16.5576C107.979 17.3983 108.266 18.1261 108.845 18.7056L109.552 17.9985C109.171 17.6177 108.979 17.1492 108.979 16.5576H107.979ZM108.848 18.7086C109.429 19.2792 110.136 19.5723 110.944 19.5723V18.5723C110.402 18.5723 109.946 18.3852 109.549 17.9955L108.848 18.7086ZM110.944 19.5723C111.753 19.5723 112.46 19.2792 113.041 18.7086L112.339 17.9955C111.943 18.3852 111.487 18.5723 110.944 18.5723V19.5723ZM113.043 18.7056C113.579 18.1701 113.871 17.5119 113.91 16.7541L112.911 16.7029C112.885 17.2146 112.696 17.6388 112.336 17.9985L113.043 18.7056ZM113.41 16.2285H113.398V17.2285H113.41V16.2285ZM113.898 16.7285V8.0127H112.898V16.7285H113.898ZM113.398 8.5127H114.497V7.5127H113.398V8.5127ZM113.997 8.0127V16.7285H114.997V8.0127H113.997ZM113.997 16.7111C113.969 17.5211 113.675 18.1983 113.105 18.7675L113.813 19.4746C114.562 18.7255 114.959 17.8076 114.996 16.7459L113.997 16.7111ZM113.103 18.7696C112.506 19.3744 111.796 19.6709 110.944 19.6709V20.6709C112.063 20.6709 113.029 20.2676 113.815 19.4726L113.103 18.7696ZM110.944 19.6709C110.093 19.6709 109.383 19.3744 108.785 18.7696L108.074 19.4726C108.86 20.2676 109.826 20.6709 110.944 20.6709V19.6709ZM108.783 18.7675C108.617 18.6009 108.474 18.4296 108.355 18.254L107.528 18.8163C107.685 19.0476 107.868 19.2669 108.076 19.4746L108.783 18.7675ZM107.528 18.254C107.411 18.4259 107.268 18.5947 107.095 18.7601L107.787 19.4821C108.005 19.2731 108.195 19.0514 108.355 18.8163L107.528 18.254ZM107.085 18.7696C106.488 19.3744 105.777 19.6709 104.926 19.6709V20.6709C106.044 20.6709 107.011 20.2676 107.797 19.4726L107.085 18.7696ZM104.926 19.6709C104.075 19.6709 103.365 19.3744 102.767 18.7696L102.056 19.4726C102.842 20.2676 103.808 20.6709 104.926 20.6709V19.6709ZM102.765 18.7675C102.196 18.1983 101.902 17.5211 101.874 16.7111L100.874 16.7459C100.911 17.8076 101.309 18.7255 102.058 19.4746L102.765 18.7675ZM101.874 16.7285V8.0127H100.874V16.7285H101.874ZM101.374 8.5127H102.473V7.5127H101.374V8.5127ZM101.973 8.0127V16.7285H102.973V8.0127H101.973ZM102.473 16.2285H102.46V17.2285H102.473V16.2285ZM101.961 16.7541C102 17.5147 102.298 18.1739 102.843 18.7088L103.543 17.9953C103.176 17.6351 102.986 17.2118 102.96 16.7029L101.961 16.7541ZM102.839 18.7056C103.413 19.279 104.117 19.5723 104.926 19.5723V18.5723C104.384 18.5723 103.933 18.3854 103.546 17.9985L102.839 18.7056ZM104.926 19.5723C105.735 19.5723 106.442 19.2792 107.022 18.7086L106.321 17.9955C105.925 18.3852 105.469 18.5723 104.926 18.5723V19.5723ZM107.025 18.7056C107.525 18.2056 107.81 17.5874 107.878 16.8733L106.882 16.7791C106.836 17.2693 106.648 17.6684 106.318 17.9985L107.025 18.7056Z" fill="#6B6BC5"/>
</svg>
