<svg width="231" height="68" viewBox="0 0 231 68" fill="none" xmlns="http://www.w3.org/2000/svg">
<path d="M123.821 17.3066C123.479 18.5599 123.138 19.9189 122.796 21.3838C122.47 22.8324 122.169 24.2646 121.893 25.6807C121.616 27.0967 121.396 28.3825 121.233 29.5381H116.912L116.546 29.001C116.839 27.8128 117.213 26.5433 117.669 25.1924C118.141 23.8415 118.646 22.4906 119.183 21.1396C119.736 19.7725 120.289 18.4948 120.843 17.3066H123.821ZM114.837 17.3066C114.495 18.5599 114.153 19.9189 113.812 21.3838C113.486 22.8324 113.185 24.2646 112.908 25.6807C112.632 27.0967 112.412 28.3825 112.249 29.5381H107.952L107.659 29.001C107.952 27.8128 108.318 26.5433 108.758 25.1924C109.214 23.8415 109.71 22.4906 110.247 21.1396C110.784 19.7725 111.329 18.4948 111.883 17.3066H114.837Z" fill="#6B6BC5" fill-opacity="0.5"/>
<path d="M0 25H102.098" stroke="#6B6BC5"/>
<path d="M128 25H230.098" stroke="#6B6BC5"/>
</svg>
