<svg width="16" height="22" viewBox="0 0 16 22" fill="none" xmlns="http://www.w3.org/2000/svg">
<path d="M7.99884 22C8.22851 21.9878 8.40927 21.9063 8.52277 21.7984L15.7634 14.9708C16.0802 14.6567 16.0675 14.1866 15.7931 13.8979C15.5188 13.6092 15.0053 13.5952 14.7155 13.8683L8.76105 19.4748V0.758553C8.76105 0.339713 8.41974 0 7.99895 0C7.57789 0 7.23686 0.339727 7.23686 0.758553V19.4748L1.28242 13.8683C0.992404 13.5952 0.488945 13.619 0.204765 13.8979C-0.0892349 14.1866 -0.0554749 14.6975 0.234537 14.9708L7.47513 21.7984C7.66015 21.9786 7.81751 21.9881 7.99907 22H7.99884Z" fill="#6B6BC5" fill-opacity="0.5"/>
</svg>
