<svg width="24" height="24" viewBox="0 0 24 24" fill="none" xmlns="http://www.w3.org/2000/svg">
<path d="M23.5 12C23.5 18.3513 18.3513 23.5 12 23.5C5.64873 23.5 0.5 18.3513 0.5 12C0.5 5.64873 5.64873 0.5 12 0.5C18.3513 0.5 23.5 5.64873 23.5 12Z" fill="#C4C4C4" stroke="white"/>
<path d="M17.978 6.96158L15.6104 17.3036C15.499 17.7907 14.9836 18.0416 14.5612 17.8103L11.5667 16.172L10.1508 18.6271C9.76552 19.2962 8.79062 19.006 8.79062 18.2236V15.488C8.79062 15.2765 8.87414 15.0747 9.01808 14.9271L14.8537 9.02301C14.849 8.94921 14.7747 8.8853 14.7005 8.93933L7.73696 14.0759L5.39724 12.7967C4.84949 12.4965 4.87271 11.6552 5.439 11.3945L16.9754 6.06614C17.5278 5.81025 18.1221 6.33674 17.9782 6.96154L17.978 6.96158Z" fill="white"/>
</svg>
