<svg width="17" height="13" viewBox="0 0 17 13" fill="none" xmlns="http://www.w3.org/2000/svg">
<path d="M16.8213 0.306641C16.4795 1.5599 16.1377 2.91895 15.7959 4.38379C15.4704 5.83236 15.1693 7.26465 14.8926 8.68066C14.6159 10.0967 14.3962 11.3825 14.2334 12.5381H9.91211L9.5459 12.001C9.83887 10.8128 10.2132 9.54329 10.6689 8.19238C11.141 6.84147 11.6455 5.49056 12.1826 4.13965C12.736 2.77246 13.2894 1.49479 13.8428 0.306641H16.8213ZM7.83691 0.306641C7.49512 1.5599 7.15332 2.91895 6.81152 4.38379C6.486 5.83236 6.1849 7.26465 5.9082 8.68066C5.63151 10.0967 5.41178 11.3825 5.24902 12.5381H0.952148L0.65918 12.001C0.952148 10.8128 1.31836 9.54329 1.75781 8.19238C2.21354 6.84147 2.70996 5.49056 3.24707 4.13965C3.78418 2.77246 4.32943 1.49479 4.88281 0.306641H7.83691Z" fill="#6B6BC5" fill-opacity="0.3"/>
</svg>
