<svg width="34" height="40" viewBox="0 0 34 40" fill="none" xmlns="http://www.w3.org/2000/svg">
<path d="M7.58491 17.4995L17.6226 8.0584C17.6838 8.00082 17.7323 7.93248 17.7654 7.85726C17.7985 7.78203 17.8156 7.70141 17.8156 7.61999C17.8156 7.53858 17.7985 7.45795 17.7654 7.38273C17.7323 7.30751 17.6838 7.23916 17.6226 7.18159C17.5614 7.12402 17.4888 7.07835 17.4089 7.04719C17.329 7.01604 17.2433 7 17.1568 7C17.0703 7 16.9846 7.01604 16.9047 7.04719C16.8248 7.07835 16.7522 7.12402 16.691 7.18159L6.19406 17.0611C6.13257 17.1185 6.08376 17.1868 6.05046 17.262C6.01715 17.3373 6 17.418 6 17.4995C6 17.581 6.01715 17.6617 6.05046 17.7369C6.08376 17.8122 6.13257 17.8805 6.19406 17.9379L16.691 27.8174C16.752 27.8752 16.8246 27.9212 16.9045 27.9525C16.9845 27.9839 17.0702 28 17.1568 28C17.2434 28 17.3292 27.9839 17.4091 27.9525C17.4891 27.9212 17.5616 27.8752 17.6226 27.8174C17.6841 27.76 17.7329 27.6917 17.7662 27.6164C17.7995 27.5412 17.8167 27.4605 17.8167 27.379C17.8167 27.2974 17.7995 27.2167 17.7662 27.1415C17.7329 27.0662 17.6841 26.998 17.6226 26.9405L7.58491 17.4995Z" fill="#7A7A7D" fill-opacity="0.7"/>
</svg>
