<svg width="12" height="21" viewBox="0 0 12 21" fill="none" xmlns="http://www.w3.org/2000/svg">
<path d="M1.58491 10.4995L11.6226 1.0584C11.6838 1.00082 11.7323 0.932477 11.7654 0.857256C11.7985 0.782034 11.8156 0.701413 11.8156 0.619994C11.8156 0.538575 11.7985 0.457954 11.7654 0.382733C11.7323 0.307511 11.6838 0.239164 11.6226 0.181592C11.5614 0.12402 11.4888 0.078352 11.4089 0.0471944C11.329 0.0160368 11.2433 -6.06616e-10 11.1568 0C11.0703 6.06617e-10 10.9846 0.0160368 10.9047 0.0471944C10.8248 0.078352 10.7522 0.12402 10.691 0.181592L0.194061 10.0611C0.13257 10.1185 0.0837629 10.1868 0.0504556 10.262C0.0171484 10.3373 0 10.418 0 10.4995C0 10.581 0.0171484 10.6617 0.0504556 10.7369C0.0837629 10.8122 0.13257 10.8805 0.194061 10.9379L10.691 20.8174C10.752 20.8752 10.8246 20.9212 10.9045 20.9525C10.9845 20.9839 11.0702 21 11.1568 21C11.2434 21 11.3292 20.9839 11.4091 20.9525C11.4891 20.9212 11.5616 20.8752 11.6226 20.8174C11.6841 20.76 11.7329 20.6917 11.7662 20.6164C11.7995 20.5412 11.8167 20.4605 11.8167 20.379C11.8167 20.2974 11.7995 20.2167 11.7662 20.1415C11.7329 20.0662 11.6841 19.998 11.6226 19.9405L1.58491 10.4995Z" fill="#464548"/>
</svg>
