<svg width="12" height="21" viewBox="0 0 12 21" fill="none" xmlns="http://www.w3.org/2000/svg">
<path d="M10.4151 10.4995L0.377388 1.0584C0.316218 1.00082 0.267695 0.932477 0.234591 0.857256C0.201486 0.782034 0.184444 0.701413 0.184444 0.619994C0.184444 0.538575 0.201486 0.457954 0.234591 0.382733C0.267695 0.307511 0.316218 0.239164 0.377388 0.181592C0.438558 0.12402 0.511176 0.078352 0.591098 0.0471944C0.671021 0.0160368 0.756682 -6.06616e-10 0.843189 0C0.929697 6.06617e-10 1.01536 0.0160368 1.09528 0.0471944C1.1752 0.078352 1.24782 0.12402 1.30899 0.181592L11.8059 10.0611C11.8674 10.1185 11.9162 10.1868 11.9495 10.262C11.9829 10.3373 12 10.418 12 10.4995C12 10.581 11.9829 10.6617 11.9495 10.7369C11.9162 10.8122 11.8674 10.8805 11.8059 10.9379L1.30899 20.8174C1.248 20.8752 1.17544 20.9212 1.09549 20.9525C1.01555 20.9839 0.929797 21 0.843189 21C0.756582 21 0.670833 20.9839 0.590885 20.9525C0.510939 20.9212 0.438377 20.8752 0.377388 20.8174C0.315897 20.76 0.26709 20.6917 0.233783 20.6164C0.200475 20.5412 0.183326 20.4605 0.183326 20.379C0.183326 20.2974 0.200475 20.2167 0.233783 20.1415C0.26709 20.0662 0.315897 19.998 0.377388 19.9405L10.4151 10.4995Z" fill="#464548"/>
</svg>
