<svg width="34" height="40" viewBox="0 0 34 40" fill="none" xmlns="http://www.w3.org/2000/svg">
<path d="M26.4151 17.4995L16.3774 8.0584C16.3162 8.00082 16.2677 7.93248 16.2346 7.85726C16.2015 7.78203 16.1844 7.70141 16.1844 7.61999C16.1844 7.53858 16.2015 7.45795 16.2346 7.38273C16.2677 7.30751 16.3162 7.23916 16.3774 7.18159C16.4386 7.12402 16.5112 7.07835 16.5911 7.04719C16.671 7.01604 16.7567 7 16.8432 7C16.9297 7 17.0154 7.01604 17.0953 7.04719C17.1752 7.07835 17.2478 7.12402 17.309 7.18159L27.8059 17.0611C27.8674 17.1185 27.9162 17.1868 27.9495 17.262C27.9829 17.3373 28 17.418 28 17.4995C28 17.581 27.9829 17.6617 27.9495 17.7369C27.9162 17.8122 27.8674 17.8805 27.8059 17.9379L17.309 27.8174C17.248 27.8752 17.1754 27.9212 17.0955 27.9525C17.0155 27.9839 16.9298 28 16.8432 28C16.7566 28 16.6708 27.9839 16.5909 27.9525C16.5109 27.9212 16.4384 27.8752 16.3774 27.8174C16.3159 27.76 16.2671 27.6917 16.2338 27.6164C16.2005 27.5412 16.1833 27.4605 16.1833 27.379C16.1833 27.2974 16.2005 27.2167 16.2338 27.1415C16.2671 27.0662 16.3159 26.998 16.3774 26.9405L26.4151 17.4995Z" fill="#6B6BC5"/>
</svg>
